<?xml version="1.0" encoding="UTF-8"?>
<svg id="Calque_2" data-name="Calque 2" xmlns="http://www.w3.org/2000/svg" viewBox="0 0 104.75 104.75">
  <defs>
    <style>
      .cls-1 {
        fill: #029388;
      }

      .cls-1, .cls-2, .cls-3, .cls-4, .cls-5, .cls-6, .cls-7, .cls-8, .cls-9, .cls-10, .cls-11, .cls-12, .cls-13, .cls-14, .cls-15, .cls-16, .cls-17, .cls-18, .cls-19, .cls-20, .cls-21, .cls-22, .cls-23, .cls-24, .cls-25, .cls-26, .cls-27, .cls-28, .cls-29, .cls-30, .cls-31, .cls-32, .cls-33, .cls-34, .cls-35, .cls-36, .cls-37, .cls-38, .cls-39, .cls-40, .cls-41, .cls-42, .cls-43, .cls-44, .cls-45, .cls-46, .cls-47, .cls-48, .cls-49, .cls-50, .cls-51, .cls-52, .cls-53, .cls-54, .cls-55, .cls-56, .cls-57, .cls-58, .cls-59, .cls-60 {
        stroke-width: 0px;
      }

      .cls-1, .cls-2, .cls-3, .cls-4, .cls-5, .cls-6, .cls-8, .cls-9, .cls-10, .cls-11, .cls-12, .cls-13, .cls-14, .cls-15, .cls-16, .cls-17, .cls-18, .cls-19, .cls-20, .cls-21, .cls-22, .cls-23, .cls-24, .cls-25, .cls-26, .cls-27, .cls-28, .cls-29, .cls-30, .cls-31, .cls-32, .cls-33, .cls-34, .cls-35, .cls-36, .cls-37, .cls-38, .cls-39, .cls-40, .cls-41, .cls-42, .cls-43, .cls-44, .cls-45, .cls-46, .cls-47, .cls-48, .cls-49, .cls-50, .cls-51, .cls-52, .cls-53, .cls-54, .cls-55, .cls-56, .cls-57, .cls-58, .cls-59, .cls-60 {
        fill-rule: evenodd;
      }

      .cls-2 {
        fill: #029186;
      }

      .cls-3 {
        fill: #057166;
      }

      .cls-4 {
        fill: #038379;
      }

      .cls-5 {
        fill: #047e74;
      }

      .cls-6, .cls-7 {
        fill: #00a79d;
      }

      .cls-8 {
        fill: #01a096;
      }

      .cls-9 {
        fill: #03887e;
      }

      .cls-10 {
        fill: #047a6f;
      }

      .cls-11 {
        fill: #047e73;
      }

      .cls-12 {
        fill: #048076;
      }

      .cls-13 {
        fill: #04766b;
      }

      .cls-14 {
        fill: #057368;
      }

      .cls-15 {
        fill: #00a69c;
      }

      .cls-16 {
        fill: #019f95;
      }

      .cls-17 {
        fill: #04776c;
      }

      .cls-18 {
        fill: #038a80;
      }

      .cls-19 {
        fill: #057469;
      }

      .cls-20 {
        fill: #02958a;
      }

      .cls-21 {
        fill: #03867c;
      }

      .cls-22 {
        fill: #028d82;
      }

      .cls-23 {
        fill: #047b70;
      }

      .cls-24 {
        fill: #04796e;
      }

      .cls-25 {
        fill: #047f75;
      }

      .cls-26 {
        fill: #038b81;
      }

      .cls-27 {
        fill: #047c71;
      }

      .cls-28 {
        fill: #019e94;
      }

      .cls-29 {
        fill: #05756a;
      }

      .cls-30 {
        fill: #02968b;
      }

      .cls-31 {
        fill: #00a49a;
      }

      .cls-32 {
        fill: #047d72;
      }

      .cls-33 {
        fill: #019a90;
      }

      .cls-34 {
        fill: #019b91;
      }

      .cls-35 {
        fill: #f1f2f2;
      }

      .cls-36 {
        fill: #028e83;
      }

      .cls-37 {
        fill: #00a59b;
      }

      .cls-38 {
        fill: #057267;
      }

      .cls-39 {
        fill: #03857b;
      }

      .cls-40 {
        fill: #028c81;
      }

      .cls-41 {
        fill: #038177;
      }

      .cls-42 {
        fill: #00a399;
      }

      .cls-43 {
        fill: #01a197;
      }

      .cls-44 {
        fill: #029489;
      }

      .cls-45 {
        fill: #029085;
      }

      .cls-46 {
        fill: #01998f;
      }

      .cls-47 {
        fill: #03847a;
      }

      .cls-48 {
        fill: #057065;
      }

      .cls-49 {
        fill: #01978c;
      }

      .cls-50 {
        fill: #01988d;
      }

      .cls-51 {
        fill: #03897f;
      }

      .cls-52 {
        fill: #029287;
      }

      .cls-53 {
        fill: #04786d;
      }

      .cls-54 {
        fill: #028f84;
      }

      .cls-55 {
        fill: #038278;
      }

      .cls-56 {
        fill: #03877d;
      }

      .cls-57 {
        fill: #019c92;
      }

      .cls-58 {
        fill: #019d93;
      }

      .cls-59 {
        fill: #01998e;
      }

      .cls-60 {
        fill: #00a298;
      }
    </style>
  </defs>
  <g id="Calque_3" data-name="Calque 3">
    <circle class="cls-7" cx="52.37" cy="52.37" r="52.37"/>
    <g>
      <path class="cls-6" d="m59.84,49.76c15.36-.68,26.01-3.51,40.82-6.51,1.04,2.13,2.08,4.26,3.11,6.38-7.58,3.12-12.12,4.9-17.46,8.33-7.9,5.07-11.75,9.71-15.4,15.78-5.41,9.02-7.44,15.81-8.72,26.04l-2.33-.02-2.33.02c-1.29-10.23-3.33-17.02-8.75-26.03-3.64-6.07-7.51-10.7-15.41-15.77-5.35-3.43-9.9-5.21-17.48-8.32,1.04-2.13,2.07-4.26,3.11-6.39,14.82,2.99,25.47,5.81,40.83,6.47Z"/>
      <path class="cls-15" d="m59.7,49.54c15.36-.68,26.01-3.51,40.82-6.52,1.04,2.13,2.08,4.26,3.12,6.38-7.57,3.12-12.12,4.9-17.46,8.34-7.9,5.07-11.75,9.71-15.39,15.78-5.41,9.02-7.44,15.81-8.72,26.04l-2.33-.02-2.33.02c-1.29-10.23-3.33-17.01-8.76-26.03-3.65-6.07-7.51-10.7-15.41-15.76-5.35-3.43-9.9-5.2-17.48-8.31,1.03-2.13,2.07-4.26,3.11-6.39,14.82,2.99,25.47,5.8,40.83,6.47Z"/>
      <path class="cls-37" d="m59.56,49.33c15.36-.69,26.01-3.52,40.82-6.53,1.04,2.13,2.08,4.26,3.12,6.38-7.57,3.12-12.12,4.91-17.46,8.34-7.9,5.07-11.75,9.71-15.39,15.79-5.41,9.02-7.44,15.81-8.71,26.04l-2.33-.02-2.33.02c-1.29-10.23-3.33-17.01-8.76-26.03-3.65-6.07-7.51-10.7-15.41-15.76-5.35-3.42-9.9-5.2-17.48-8.31,1.03-2.13,2.07-4.26,3.11-6.39,14.82,2.99,25.47,5.8,40.83,6.46Z"/>
      <path class="cls-31" d="m59.42,49.12c15.36-.69,26.01-3.52,40.82-6.53,1.04,2.13,2.08,4.26,3.12,6.38-7.57,3.12-12.12,4.91-17.46,8.34-7.9,5.07-11.75,9.72-15.39,15.79-5.41,9.02-7.43,15.81-8.71,26.05l-2.33-.02-2.33.02c-1.3-10.23-3.34-17.01-8.76-26.03-3.65-6.07-7.51-10.7-15.42-15.76-5.35-3.42-9.9-5.2-17.48-8.31,1.03-2.13,2.07-4.26,3.11-6.39,14.82,2.98,25.47,5.79,40.83,6.45Z"/>
      <path class="cls-42" d="m59.28,48.91c15.36-.69,26.01-3.52,40.82-6.54,1.04,2.13,2.08,4.25,3.12,6.38-7.57,3.12-12.12,4.91-17.46,8.35-7.89,5.08-11.75,9.72-15.38,15.79-5.41,9.03-7.43,15.81-8.71,26.05l-2.33-.02-2.33.02c-1.3-10.23-3.34-17.01-8.77-26.02-3.65-6.07-7.51-10.7-15.42-15.76-5.35-3.42-9.9-5.2-17.48-8.3,1.03-2.13,2.07-4.26,3.11-6.39,14.82,2.98,25.47,5.79,40.83,6.44Z"/>
      <path class="cls-60" d="m59.13,48.7c15.36-.69,26-3.53,40.81-6.55,1.04,2.13,2.08,4.25,3.12,6.38-7.57,3.12-12.12,4.91-17.46,8.35-7.89,5.08-11.75,9.72-15.38,15.8-5.4,9.03-7.43,15.81-8.7,26.05l-2.33-.02-2.33.02c-1.3-10.23-3.34-17.01-8.77-26.02-3.65-6.07-7.52-10.7-15.42-15.75-5.35-3.42-9.9-5.2-17.48-8.3,1.03-2.13,2.07-4.26,3.1-6.39,14.82,2.98,25.47,5.79,40.83,6.44Z"/>
      <path class="cls-43" d="m58.99,48.48c15.36-.7,26-3.53,40.81-6.55,1.04,2.13,2.08,4.25,3.12,6.38-7.57,3.13-12.12,4.91-17.46,8.35-7.89,5.08-11.75,9.72-15.38,15.8-5.4,9.03-7.42,15.81-8.7,26.05l-2.33-.02-2.33.02c-1.3-10.23-3.35-17.01-8.78-26.02-3.65-6.07-7.52-10.7-15.42-15.75-5.35-3.42-9.9-5.2-17.49-8.3,1.03-2.13,2.07-4.26,3.1-6.39,14.82,2.98,25.47,5.78,40.83,6.43Z"/>
      <path class="cls-8" d="m58.85,48.27c15.36-.7,26-3.54,40.81-6.56,1.04,2.13,2.08,4.25,3.12,6.38-7.57,3.13-12.12,4.92-17.45,8.35-7.89,5.08-11.74,9.72-15.38,15.8-5.4,9.03-7.42,15.81-8.69,26.05h-2.33s-2.33,0-2.33,0c-1.3-10.23-3.35-17.01-8.78-26.02-3.65-6.07-7.52-10.7-15.43-15.75-5.35-3.42-9.91-5.19-17.49-8.3,1.03-2.13,2.07-4.26,3.1-6.39,14.82,2.97,25.48,5.78,40.83,6.42Z"/>
      <path class="cls-16" d="m58.71,48.06c15.36-.7,26-3.54,40.81-6.57,1.04,2.13,2.08,4.25,3.12,6.38-7.57,3.13-12.11,4.92-17.45,8.36-7.89,5.08-11.74,9.73-15.37,15.8-5.4,9.03-7.42,15.82-8.69,26.05h-2.33s-2.33,0-2.33,0c-1.3-10.23-3.35-17.01-8.79-26.02-3.65-6.07-7.52-10.69-15.43-15.75-5.35-3.42-9.91-5.19-17.49-8.29,1.03-2.13,2.07-4.26,3.1-6.39,14.82,2.97,25.48,5.77,40.83,6.42Z"/>
      <path class="cls-28" d="m58.57,47.85c15.36-.7,26-3.55,40.81-6.57,1.04,2.13,2.08,4.25,3.12,6.38-7.57,3.13-12.11,4.92-17.45,8.36-7.89,5.08-11.74,9.73-15.37,15.81-5.4,9.03-7.42,15.82-8.68,26.05h-2.33s-2.33,0-2.33,0c-1.31-10.23-3.35-17.01-8.79-26.02-3.65-6.07-7.52-10.69-15.43-15.74-5.35-3.42-9.91-5.19-17.49-8.29,1.03-2.13,2.07-4.26,3.1-6.39,14.82,2.97,25.48,5.77,40.84,6.41Z"/>
      <path class="cls-58" d="m58.43,47.63c15.36-.71,26-3.55,40.81-6.58,1.04,2.13,2.08,4.25,3.12,6.38-7.57,3.13-12.11,4.92-17.45,8.36-7.89,5.08-11.74,9.73-15.37,15.81-5.4,9.03-7.41,15.82-8.68,26.06h-2.33s-2.33,0-2.33,0c-1.31-10.23-3.36-17.01-8.79-26.02-3.65-6.06-7.53-10.69-15.43-15.74-5.35-3.42-9.91-5.19-17.49-8.29,1.03-2.13,2.07-4.26,3.1-6.39,14.82,2.97,25.48,5.76,40.84,6.4Z"/>
      <path class="cls-57" d="m58.29,47.42c15.36-.71,26-3.55,40.81-6.59,1.04,2.13,2.08,4.25,3.13,6.38-7.57,3.13-12.11,4.92-17.45,8.37-7.89,5.09-11.74,9.73-15.37,15.81-5.39,9.03-7.41,15.82-8.68,26.06h-2.33s-2.33.01-2.33.01c-1.31-10.23-3.36-17.01-8.8-26.01-3.66-6.06-7.53-10.69-15.44-15.74-5.35-3.42-9.91-5.19-17.49-8.28,1.03-2.13,2.06-4.26,3.1-6.39,14.82,2.96,25.48,5.76,40.84,6.4Z"/>
      <path class="cls-34" d="m58.15,47.21c15.36-.71,26-3.56,40.81-6.59,1.04,2.13,2.08,4.25,3.13,6.38-7.57,3.13-12.11,4.93-17.45,8.37-7.89,5.09-11.74,9.73-15.36,15.81-5.39,9.03-7.41,15.82-8.67,26.06h-2.33s-2.33.01-2.33.01c-1.31-10.23-3.36-17.01-8.8-26.01-3.66-6.06-7.53-10.69-15.44-15.74-5.36-3.42-9.91-5.19-17.49-8.28,1.03-2.13,2.06-4.26,3.1-6.39,14.82,2.96,25.48,5.76,40.84,6.39Z"/>
      <path class="cls-33" d="m58.01,47c15.35-.71,26-3.56,40.81-6.6,1.04,2.13,2.09,4.25,3.13,6.38-7.57,3.13-12.11,4.93-17.45,8.37-7.89,5.09-11.73,9.74-15.36,15.82-5.39,9.03-7.41,15.82-8.67,26.06h-2.33s-2.33.01-2.33.01c-1.31-10.23-3.37-17.01-8.81-26.01-3.66-6.06-7.53-10.69-15.44-15.73-5.36-3.41-9.91-5.18-17.5-8.28,1.03-2.13,2.06-4.26,3.1-6.39,14.82,2.96,25.48,5.75,40.84,6.38Z"/>
      <path class="cls-46" d="m57.87,46.78c15.35-.72,26-3.57,40.8-6.61,1.04,2.13,2.09,4.25,3.13,6.38-7.57,3.14-12.11,4.93-17.44,8.37-7.89,5.09-11.73,9.74-15.36,15.82-5.39,9.03-7.4,15.82-8.66,26.06h-2.33s-2.33.01-2.33.01c-1.31-10.23-3.37-17.01-8.81-26.01-3.66-6.06-7.53-10.69-15.44-15.73-5.36-3.41-9.91-5.18-17.5-8.28,1.03-2.13,2.06-4.26,3.09-6.39,14.82,2.96,25.48,5.75,40.84,6.38Z"/>
      <path class="cls-59" d="m57.72,46.57c15.35-.72,26-3.57,40.8-6.62,1.04,2.13,2.09,4.25,3.13,6.38-7.57,3.14-12.11,4.93-17.44,8.38-7.89,5.09-11.73,9.74-15.36,15.82-5.39,9.04-7.4,15.82-8.66,26.06h-2.33s-2.33.01-2.33.01c-1.32-10.23-3.37-17.01-8.82-26.01-3.66-6.06-7.53-10.69-15.45-15.73-5.36-3.41-9.91-5.18-17.5-8.27,1.03-2.13,2.06-4.26,3.09-6.4,14.82,2.95,25.48,5.74,40.84,6.37Z"/>
      <path class="cls-50" d="m57.58,46.36c15.35-.72,26-3.58,40.8-6.62,1.04,2.13,2.09,4.25,3.13,6.38-7.57,3.14-12.11,4.93-17.44,8.38-7.88,5.09-11.73,9.74-15.35,15.82-5.39,9.04-7.4,15.83-8.65,26.06h-2.33s-2.33.01-2.33.01c-1.32-10.23-3.37-17.01-8.82-26.01-3.66-6.06-7.54-10.68-15.45-15.73-5.36-3.41-9.91-5.18-17.5-8.27,1.03-2.13,2.06-4.26,3.09-6.4,14.82,2.95,25.48,5.74,40.84,6.36Z"/>
      <path class="cls-49" d="m57.44,46.15c15.35-.72,26-3.58,40.8-6.63,1.04,2.12,2.09,4.25,3.13,6.38-7.57,3.14-12.11,4.94-17.44,8.38-7.88,5.09-11.73,9.74-15.35,15.83-5.39,9.04-7.4,15.83-8.65,26.07h-2.33s-2.33.02-2.33.02c-1.32-10.23-3.38-17.01-8.82-26.01-3.66-6.06-7.54-10.68-15.45-15.72-5.36-3.41-9.91-5.18-17.5-8.27,1.03-2.13,2.06-4.26,3.09-6.4,14.82,2.95,25.48,5.73,40.84,6.36Z"/>
      <path class="cls-30" d="m57.3,45.94c15.35-.73,26-3.58,40.8-6.64,1.05,2.12,2.09,4.25,3.13,6.37-7.57,3.14-12.11,4.94-17.44,8.39-7.88,5.09-11.73,9.74-15.35,15.83-5.38,9.04-7.39,15.83-8.64,26.07h-2.33s-2.33.02-2.33.02c-1.32-10.23-3.38-17-8.83-26-3.66-6.06-7.54-10.68-15.45-15.72-5.36-3.41-9.91-5.18-17.5-8.26,1.03-2.13,2.06-4.26,3.09-6.4,14.83,2.95,25.49,5.73,40.84,6.35Z"/>
      <path class="cls-20" d="m57.16,45.72c15.35-.73,26-3.59,40.8-6.64,1.05,2.12,2.09,4.25,3.13,6.37-7.57,3.14-12.11,4.94-17.44,8.39-7.88,5.1-11.72,9.75-15.35,15.83-5.38,9.04-7.39,15.83-8.64,26.07h-2.33s-2.33.02-2.33.02c-1.32-10.23-3.38-17-8.83-26-3.66-6.06-7.54-10.68-15.46-15.72-5.36-3.41-9.92-5.17-17.5-8.26,1.03-2.13,2.06-4.26,3.09-6.4,14.83,2.94,25.49,5.73,40.85,6.34Z"/>
      <path class="cls-44" d="m57.02,45.51c15.35-.73,26-3.59,40.8-6.65,1.05,2.12,2.09,4.25,3.14,6.37-7.56,3.14-12.1,4.94-17.44,8.39-7.88,5.1-11.72,9.75-15.34,15.83-5.38,9.04-7.39,15.83-8.64,26.07h-2.33s-2.33.02-2.33.02c-1.32-10.23-3.39-17-8.84-26-3.67-6.06-7.54-10.68-15.46-15.72-5.36-3.41-9.92-5.17-17.5-8.26,1.03-2.13,2.06-4.27,3.09-6.4,14.83,2.94,25.49,5.72,40.85,6.34Z"/>
      <path class="cls-1" d="m56.88,45.3c15.35-.73,26-3.6,40.8-6.66,1.05,2.12,2.09,4.25,3.14,6.37-7.56,3.14-12.1,4.94-17.43,8.39-7.88,5.1-11.72,9.75-15.34,15.84-5.38,9.04-7.39,15.83-8.63,26.07h-2.33s-2.33.02-2.33.02c-1.33-10.23-3.39-17-8.84-26-3.67-6.06-7.55-10.68-15.46-15.71-5.36-3.41-9.92-5.17-17.51-8.25,1.03-2.13,2.06-4.27,3.09-6.4,14.83,2.94,25.49,5.72,40.85,6.33Z"/>
      <path class="cls-52" d="m56.74,45.09c15.35-.74,25.99-3.6,40.8-6.66,1.05,2.12,2.09,4.25,3.14,6.37-7.56,3.15-12.1,4.95-17.43,8.4-7.88,5.1-11.72,9.75-15.34,15.84-5.38,9.04-7.38,15.83-8.63,26.07h-2.33s-2.33.02-2.33.02c-1.33-10.23-3.39-17-8.85-26-3.67-6.06-7.55-10.68-15.46-15.71-5.36-3.41-9.92-5.17-17.51-8.25,1.03-2.13,2.06-4.27,3.09-6.4,14.83,2.94,25.49,5.71,40.85,6.32Z"/>
      <path class="cls-2" d="m56.6,44.87c15.35-.74,25.99-3.61,40.8-6.67,1.05,2.12,2.09,4.25,3.14,6.37-7.56,3.15-12.1,4.95-17.43,8.4-7.88,5.1-11.72,9.75-15.33,15.84-5.38,9.04-7.38,15.83-8.62,26.07h-2.33s-2.33.02-2.33.02c-1.33-10.23-3.39-17-8.85-26-3.67-6.06-7.55-10.68-15.47-15.71-5.36-3.41-9.92-5.17-17.51-8.25,1.03-2.13,2.06-4.27,3.08-6.4,14.83,2.93,25.49,5.71,40.85,6.32Z"/>
      <path class="cls-45" d="m56.46,44.66c15.35-.74,25.99-3.61,40.79-6.68,1.05,2.12,2.09,4.25,3.14,6.37-7.56,3.15-12.1,4.95-17.43,8.4-7.88,5.1-11.72,9.76-15.33,15.84-5.37,9.04-7.38,15.83-8.62,26.07h-2.33s-2.33.02-2.33.02c-1.33-10.23-3.4-17-8.85-26-3.67-6.06-7.55-10.67-15.47-15.71-5.36-3.41-9.92-5.17-17.51-8.25,1.03-2.13,2.05-4.27,3.08-6.4,14.83,2.93,25.49,5.71,40.85,6.31Z"/>
      <path class="cls-54" d="m56.32,44.45c15.35-.74,25.99-3.62,40.79-6.68,1.05,2.12,2.09,4.25,3.14,6.37-7.56,3.15-12.1,4.95-17.43,8.41-7.88,5.1-11.71,9.76-15.33,15.85-5.37,9.04-7.37,15.84-8.61,26.08h-2.33s-2.33.02-2.33.02c-1.33-10.23-3.4-17-8.86-25.99-3.67-6.06-7.55-10.67-15.47-15.7-5.36-3.4-9.92-5.16-17.51-8.24,1.03-2.13,2.05-4.27,3.08-6.4,14.83,2.93,25.49,5.7,40.85,6.3Z"/>
      <path class="cls-36" d="m56.17,44.24c15.35-.75,25.99-3.62,40.79-6.69,1.05,2.12,2.09,4.25,3.14,6.37-7.56,3.15-12.1,4.95-17.43,8.41-7.88,5.1-11.71,9.76-15.33,15.85-5.37,9.05-7.37,15.84-8.61,26.08h-2.33s-2.33.02-2.33.02c-1.33-10.23-3.4-17-8.86-25.99-3.67-6.05-7.55-10.67-15.48-15.7-5.36-3.4-9.92-5.16-17.51-8.24,1.03-2.13,2.05-4.27,3.08-6.4,14.83,2.93,25.49,5.7,40.85,6.3Z"/>
      <path class="cls-22" d="m56.03,44.03c15.35-.75,25.99-3.62,40.79-6.7,1.05,2.12,2.1,4.25,3.14,6.37-7.56,3.15-12.1,4.96-17.43,8.41-7.88,5.11-11.71,9.76-15.32,15.85-5.37,9.05-7.37,15.84-8.61,26.08h-2.33s-2.33.02-2.33.02c-1.34-10.23-3.41-17-8.87-25.99-3.67-6.05-7.56-10.67-15.48-15.7-5.36-3.4-9.92-5.16-17.51-8.24,1.03-2.13,2.05-4.27,3.08-6.4,14.83,2.92,25.49,5.69,40.85,6.29Z"/>
      <path class="cls-40" d="m55.89,43.81c15.35-.75,25.99-3.63,40.79-6.7,1.05,2.12,2.1,4.25,3.14,6.37-7.56,3.15-12.1,4.96-17.43,8.41-7.87,5.11-11.71,9.76-15.32,15.85-5.37,9.05-7.37,15.84-8.6,26.08h-2.33s-2.33.02-2.33.02c-1.34-10.23-3.41-17-8.87-25.99-3.67-6.05-7.56-10.67-15.48-15.69-5.36-3.4-9.92-5.16-17.52-8.23,1.03-2.13,2.05-4.27,3.08-6.4,14.83,2.92,25.49,5.69,40.85,6.28Z"/>
      <path class="cls-26" d="m55.75,43.6c15.35-.75,25.99-3.63,40.79-6.71,1.05,2.12,2.1,4.25,3.14,6.37-7.56,3.15-12.1,4.96-17.42,8.42-7.87,5.11-11.71,9.77-15.32,15.86-5.37,9.05-7.36,15.84-8.6,26.08h-2.33s-2.33.02-2.33.02c-1.34-10.23-3.41-17-8.88-25.99-3.67-6.05-7.56-10.67-15.48-15.69-5.36-3.4-9.92-5.16-17.52-8.23,1.02-2.13,2.05-4.27,3.08-6.4,14.83,2.92,25.5,5.68,40.86,6.28Z"/>
      <path class="cls-18" d="m55.61,43.39c15.35-.76,25.99-3.64,40.79-6.72,1.05,2.12,2.1,4.25,3.15,6.37-7.56,3.16-12.1,4.96-17.42,8.42-7.87,5.11-11.71,9.77-15.32,15.86-5.37,9.05-7.36,15.84-8.59,26.08h-2.33s-2.33.03-2.33.03c-1.34-10.23-3.41-17-8.88-25.99-3.68-6.05-7.56-10.67-15.49-15.69-5.37-3.4-9.92-5.16-17.52-8.23,1.02-2.13,2.05-4.27,3.08-6.4,14.83,2.92,25.5,5.68,40.86,6.27Z"/>
      <path class="cls-51" d="m55.47,43.18c15.35-.76,25.99-3.64,40.79-6.72,1.05,2.12,2.1,4.25,3.15,6.37-7.56,3.16-12.1,4.96-17.42,8.42-7.87,5.11-11.7,9.77-15.31,15.86-5.36,9.05-7.36,15.84-8.59,26.08h-2.33s-2.33.03-2.33.03c-1.34-10.23-3.42-17-8.88-25.98-3.68-6.05-7.56-10.67-15.49-15.69-5.37-3.4-9.93-5.15-17.52-8.23,1.02-2.13,2.05-4.27,3.08-6.4,14.83,2.92,25.5,5.68,40.86,6.26Z"/>
      <path class="cls-9" d="m55.33,42.96c15.35-.76,25.99-3.65,40.79-6.73,1.05,2.12,2.1,4.25,3.15,6.37-7.56,3.16-12.09,4.97-17.42,8.43-7.87,5.11-11.7,9.77-15.31,15.86-5.36,9.05-7.36,15.84-8.58,26.09h-2.33s-2.33.03-2.33.03c-1.34-10.23-3.42-17-8.89-25.98-3.68-6.05-7.56-10.66-15.49-15.68-5.37-3.4-9.93-5.15-17.52-8.22,1.02-2.13,2.05-4.27,3.08-6.4,14.83,2.91,25.5,5.67,40.86,6.26Z"/>
      <path class="cls-56" d="m55.19,42.75c15.35-.77,25.99-3.65,40.78-6.74,1.05,2.12,2.1,4.24,3.15,6.37-7.56,3.16-12.09,4.97-17.42,8.43-7.87,5.11-11.7,9.77-15.31,15.87-5.36,9.05-7.35,15.85-8.58,26.09h-2.33s-2.33.03-2.33.03c-1.35-10.23-3.42-17-8.89-25.98-3.68-6.05-7.57-10.66-15.49-15.68-5.37-3.4-9.93-5.15-17.52-8.22,1.02-2.14,2.05-4.27,3.07-6.4,14.83,2.91,25.5,5.67,40.86,6.25Z"/>
      <path class="cls-21" d="m55.05,42.54c15.35-.77,25.99-3.65,40.78-6.74,1.05,2.12,2.1,4.24,3.15,6.37-7.56,3.16-12.09,4.97-17.42,8.43-7.87,5.12-11.7,9.78-15.31,15.87-5.36,9.05-7.35,15.85-8.58,26.09h-2.33s-2.33.03-2.33.03c-1.35-10.23-3.43-17-8.9-25.98-3.68-6.05-7.57-10.66-15.5-15.68-5.37-3.4-9.93-5.15-17.52-8.22,1.02-2.14,2.05-4.27,3.07-6.41,14.83,2.91,25.5,5.66,40.86,6.24Z"/>
      <path class="cls-39" d="m54.91,42.33c15.35-.77,25.99-3.66,40.78-6.75,1.05,2.12,2.1,4.24,3.15,6.37-7.56,3.16-12.09,4.97-17.42,8.43-7.87,5.12-11.7,9.78-15.3,15.87-5.36,9.05-7.35,15.85-8.57,26.09h-2.33s-2.33.03-2.33.03c-1.35-10.23-3.43-17-8.9-25.98-3.68-6.05-7.57-10.66-15.5-15.68-5.37-3.4-9.93-5.15-17.52-8.21,1.02-2.14,2.05-4.27,3.07-6.41,14.83,2.91,25.5,5.66,40.86,6.23Z"/>
      <path class="cls-47" d="m54.76,42.11c15.35-.77,25.99-3.66,40.78-6.76,1.05,2.12,2.1,4.24,3.15,6.37-7.56,3.16-12.09,4.97-17.41,8.44-7.87,5.12-11.7,9.78-15.3,15.87-5.36,9.05-7.35,15.85-8.57,26.09h-2.33s-2.33.03-2.33.03c-1.35-10.23-3.43-16.99-8.91-25.98-3.68-6.05-7.57-10.66-15.5-15.67-5.37-3.39-9.93-5.15-17.53-8.21,1.02-2.14,2.05-4.27,3.07-6.41,14.83,2.9,25.5,5.65,40.86,6.23Z"/>
      <path class="cls-4" d="m54.62,41.9c15.35-.78,25.99-3.67,40.78-6.76,1.05,2.12,2.1,4.24,3.15,6.36-7.56,3.16-12.09,4.98-17.41,8.44-7.87,5.12-11.69,9.78-15.3,15.88-5.36,9.05-7.34,15.85-8.56,26.09h-2.33s-2.33.03-2.33.03c-1.35-10.22-3.43-16.99-8.91-25.98-3.68-6.05-7.57-10.66-15.5-15.67-5.37-3.39-9.93-5.14-17.53-8.21,1.02-2.14,2.05-4.27,3.07-6.41,14.83,2.9,25.5,5.65,40.86,6.22Z"/>
      <path class="cls-55" d="m54.48,41.69c15.35-.78,25.99-3.67,40.78-6.77,1.05,2.12,2.1,4.24,3.15,6.36-7.56,3.17-12.09,4.98-17.41,8.44-7.87,5.12-11.69,9.78-15.3,15.88-5.35,9.06-7.34,15.85-8.56,26.09h-2.33s-2.33.03-2.33.03c-1.35-10.22-3.44-16.99-8.91-25.97-3.68-6.05-7.58-10.66-15.51-15.67-5.37-3.39-9.93-5.14-17.53-8.21,1.02-2.14,2.04-4.27,3.07-6.41,14.83,2.9,25.5,5.65,40.87,6.21Z"/>
      <path class="cls-41" d="m54.34,41.48c15.35-.78,25.98-3.68,40.78-6.78,1.05,2.12,2.1,4.24,3.16,6.36-7.55,3.17-12.09,4.98-17.41,8.45-7.87,5.12-11.69,9.79-15.29,15.88-5.35,9.06-7.34,15.85-8.55,26.1h-2.33s-2.33.03-2.33.03c-1.36-10.22-3.44-16.99-8.92-25.97-3.68-6.05-7.58-10.65-15.51-15.67-5.37-3.39-9.93-5.14-17.53-8.2,1.02-2.14,2.04-4.27,3.07-6.41,14.84,2.9,25.5,5.64,40.87,6.21Z"/>
      <path class="cls-12" d="m54.2,41.27c15.35-.78,25.98-3.68,40.78-6.78,1.05,2.12,2.1,4.24,3.16,6.36-7.55,3.17-12.09,4.98-17.41,8.45-7.86,5.12-11.69,9.79-15.29,15.88-5.35,9.06-7.34,15.85-8.55,26.1h-2.33s-2.33.03-2.33.03c-1.36-10.22-3.44-16.99-8.92-25.97-3.69-6.05-7.58-10.65-15.51-15.66-5.37-3.39-9.93-5.14-17.53-8.2,1.02-2.14,2.04-4.27,3.07-6.41,14.84,2.89,25.51,5.64,40.87,6.2Z"/>
      <path class="cls-25" d="m54.06,41.05c15.35-.79,25.98-3.68,40.78-6.79,1.05,2.12,2.11,4.24,3.16,6.36-7.55,3.17-12.09,4.98-17.41,8.45-7.86,5.12-11.69,9.79-15.29,15.89-5.35,9.06-7.33,15.86-8.54,26.1h-2.33s-2.33.03-2.33.03c-1.36-10.22-3.45-16.99-8.93-25.97-3.69-6.05-7.58-10.65-15.51-15.66-5.37-3.39-9.93-5.14-17.53-8.2,1.02-2.14,2.04-4.27,3.07-6.41,14.84,2.89,25.51,5.63,40.87,6.19Z"/>
      <path class="cls-5" d="m53.92,40.84c15.35-.79,25.98-3.69,40.77-6.8,1.05,2.12,2.11,4.24,3.16,6.36-7.55,3.17-12.09,4.99-17.41,8.46-7.86,5.13-11.69,9.79-15.28,15.89-5.35,9.06-7.33,15.86-8.54,26.1h-2.33s-2.33.03-2.33.03c-1.36-10.22-3.45-16.99-8.93-25.97-3.69-6.04-7.58-10.65-15.52-15.66-5.37-3.39-9.93-5.14-17.53-8.19,1.02-2.14,2.04-4.27,3.06-6.41,14.84,2.89,25.51,5.63,40.87,6.19Z"/>
      <path class="cls-11" d="m53.78,40.63c15.35-.79,25.98-3.69,40.77-6.8,1.05,2.12,2.11,4.24,3.16,6.36-7.55,3.17-12.09,4.99-17.4,8.46-7.86,5.13-11.68,9.79-15.28,15.89-5.35,9.06-7.33,15.86-8.54,26.1h-2.33s-2.33.04-2.33.04c-1.36-10.22-3.45-16.99-8.94-25.97-3.69-6.04-7.58-10.65-15.52-15.66-5.37-3.39-9.94-5.13-17.54-8.19,1.02-2.14,2.04-4.27,3.06-6.41,14.84,2.89,25.51,5.62,40.87,6.18Z"/>
      <path class="cls-32" d="m53.64,40.42c15.35-.79,25.98-3.7,40.77-6.81,1.05,2.12,2.11,4.24,3.16,6.36-7.55,3.17-12.08,4.99-17.4,8.46-7.86,5.13-11.68,9.8-15.28,15.89-5.34,9.06-7.33,15.86-8.53,26.1h-2.33s-2.33.04-2.33.04c-1.36-10.22-3.45-16.99-8.94-25.97-3.69-6.04-7.59-10.65-15.52-15.65-5.37-3.39-9.94-5.13-17.54-8.19,1.02-2.14,2.04-4.27,3.06-6.41,14.84,2.88,25.51,5.62,40.87,6.17Z"/>
      <path class="cls-27" d="m53.5,40.2c15.35-.8,25.98-3.7,40.77-6.82,1.05,2.12,2.11,4.24,3.16,6.36-7.55,3.17-12.08,4.99-17.4,8.46-7.86,5.13-11.68,9.8-15.28,15.9-5.34,9.06-7.32,15.86-8.53,26.1h-2.33s-2.33.04-2.33.04c-1.37-10.22-3.46-16.99-8.94-25.96-3.69-6.04-7.59-10.65-15.53-15.65-5.37-3.39-9.94-5.13-17.54-8.19,1.02-2.14,2.04-4.27,3.06-6.41,14.84,2.88,25.51,5.62,40.87,6.17Z"/>
      <path class="cls-23" d="m53.36,39.99c15.35-.8,25.98-3.71,40.77-6.82,1.05,2.12,2.11,4.24,3.16,6.36-7.55,3.18-12.08,4.99-17.4,8.47-7.86,5.13-11.68,9.8-15.27,15.9-5.34,9.06-7.32,15.86-8.52,26.11h-2.33s-2.33.04-2.33.04c-1.37-10.22-3.46-16.99-8.95-25.96-3.69-6.04-7.59-10.65-15.53-15.65-5.37-3.39-9.94-5.13-17.54-8.18,1.02-2.14,2.04-4.27,3.06-6.41,14.84,2.88,25.51,5.61,40.87,6.16Z"/>
      <path class="cls-10" d="m53.21,39.78c15.35-.8,25.98-3.71,40.77-6.83,1.06,2.12,2.11,4.24,3.16,6.36-7.55,3.18-12.08,5-17.4,8.47-7.86,5.13-11.68,9.8-15.27,15.9-5.34,9.06-7.32,15.86-8.52,26.11h-2.33s-2.33.04-2.33.04c-1.37-10.22-3.46-16.99-8.95-25.96-3.69-6.04-7.59-10.64-15.53-15.65-5.38-3.38-9.94-5.13-17.54-8.18,1.02-2.14,2.04-4.27,3.06-6.41,14.84,2.88,25.51,5.61,40.87,6.15Z"/>
      <path class="cls-24" d="m53.07,39.57c15.35-.8,25.98-3.71,40.77-6.84,1.06,2.12,2.11,4.24,3.16,6.36-7.55,3.18-12.08,5-17.4,8.47-7.86,5.13-11.68,9.8-15.27,15.9-5.34,9.06-7.31,15.86-8.51,26.11h-2.33s-2.33.04-2.33.04c-1.37-10.22-3.46-16.99-8.96-25.96-3.69-6.04-7.59-10.64-15.53-15.64-5.38-3.38-9.94-5.13-17.54-8.18,1.02-2.14,2.04-4.27,3.06-6.41,14.84,2.87,25.51,5.6,40.88,6.15Z"/>
      <path class="cls-53" d="m52.93,39.35c15.35-.81,25.98-3.72,40.77-6.85,1.06,2.12,2.11,4.24,3.17,6.36-7.55,3.18-12.08,5-17.4,8.48-7.86,5.13-11.68,9.8-15.27,15.91-5.34,9.07-7.31,15.87-8.51,26.11h-2.33s-2.33.04-2.33.04c-1.37-10.22-3.47-16.99-8.96-25.96-3.69-6.04-7.6-10.64-15.54-15.64-5.38-3.38-9.94-5.12-17.54-8.17,1.02-2.14,2.04-4.28,3.06-6.41,14.84,2.87,25.51,5.6,40.88,6.14Z"/>
      <path class="cls-17" d="m52.79,39.14c15.35-.81,25.98-3.72,40.77-6.85,1.06,2.12,2.11,4.24,3.17,6.36-7.55,3.18-12.08,5-17.39,8.48-7.86,5.14-11.67,9.81-15.26,15.91-5.34,9.07-7.31,15.87-8.51,26.11h-2.33s-2.33.04-2.33.04c-1.37-10.22-3.47-16.99-8.97-25.96-3.7-6.04-7.6-10.64-15.54-15.64-5.38-3.38-9.94-5.12-17.55-8.17,1.02-2.14,2.04-4.28,3.06-6.41,14.84,2.87,25.51,5.6,40.88,6.13Z"/>
      <path class="cls-13" d="m52.65,38.93c15.35-.81,25.98-3.73,40.76-6.86,1.06,2.12,2.11,4.24,3.17,6.36-7.55,3.18-12.08,5-17.39,8.48-7.85,5.14-11.67,9.81-15.26,15.91-5.33,9.07-7.31,15.87-8.5,26.11h-2.33s-2.33.04-2.33.04c-1.38-10.22-3.47-16.99-8.97-25.96-3.7-6.04-7.6-10.64-15.54-15.64-5.38-3.38-9.94-5.12-17.55-8.17,1.02-2.14,2.04-4.28,3.06-6.41,14.84,2.87,25.52,5.59,40.88,6.13Z"/>
      <path class="cls-29" d="m52.51,38.72c15.35-.81,25.98-3.73,40.76-6.87,1.06,2.12,2.11,4.24,3.17,6.36-7.55,3.18-12.08,5.01-17.39,8.48-7.85,5.14-11.67,9.81-15.26,15.91-5.33,9.07-7.3,15.87-8.5,26.11h-2.33s-2.33.04-2.33.04c-1.38-10.22-3.48-16.99-8.97-25.95-3.7-6.04-7.6-10.64-15.54-15.63-5.38-3.38-9.94-5.12-17.55-8.16,1.02-2.14,2.03-4.28,3.05-6.41,14.84,2.86,25.52,5.59,40.88,6.12Z"/>
      <path class="cls-19" d="m52.37,38.51c15.35-.82,25.98-3.74,40.76-6.87,1.06,2.12,2.11,4.24,3.17,6.36-7.55,3.18-12.08,5.01-17.39,8.49-7.85,5.14-11.67,9.81-15.26,15.92-5.33,9.07-7.3,15.87-8.49,26.12h-2.33s-2.33.04-2.33.04c-1.38-10.22-3.48-16.98-8.98-25.95-3.7-6.04-7.6-10.64-15.55-15.63-5.38-3.38-9.94-5.12-17.55-8.16,1.02-2.14,2.03-4.28,3.05-6.41,14.84,2.86,25.52,5.58,40.88,6.11Z"/>
      <path class="cls-14" d="m52.23,38.29c15.35-.82,25.98-3.74,40.76-6.88,1.06,2.12,2.11,4.24,3.17,6.36-7.55,3.19-12.08,5.01-17.39,8.49-7.85,5.14-11.67,9.81-15.25,15.92-5.33,9.07-7.3,15.87-8.49,26.12h-2.33s-2.33.04-2.33.04c-1.38-10.22-3.48-16.98-8.98-25.95-3.7-6.04-7.6-10.64-15.55-15.63-5.38-3.38-9.94-5.12-17.55-8.16,1.02-2.14,2.03-4.28,3.05-6.42,14.84,2.86,25.52,5.58,40.88,6.11Z"/>
      <path class="cls-38" d="m52.09,38.08c15.35-.82,25.97-3.74,40.76-6.89,1.06,2.12,2.11,4.24,3.17,6.36-7.55,3.19-12.08,5.01-17.39,8.49-7.85,5.14-11.67,9.82-15.25,15.92-5.33,9.07-7.3,15.87-8.48,26.12h-2.33s-2.33.04-2.33.04c-1.38-10.22-3.48-16.98-8.99-25.95-3.7-6.04-7.61-10.63-15.55-15.63-5.38-3.38-9.95-5.11-17.55-8.16,1.02-2.14,2.03-4.28,3.05-6.42,14.84,2.86,25.52,5.57,40.88,6.1Z"/>
      <path class="cls-3" d="m51.95,37.87c15.35-.82,25.97-3.75,40.76-6.89,1.06,2.12,2.12,4.24,3.17,6.36-7.55,3.19-12.08,5.01-17.39,8.5-7.85,5.14-11.66,9.82-15.25,15.92-5.33,9.07-7.29,15.87-8.48,26.12h-2.33s-2.33.05-2.33.05c-1.39-10.22-3.49-16.98-8.99-25.95-3.7-6.04-7.61-10.63-15.55-15.62-5.38-3.38-9.95-5.11-17.55-8.15,1.02-2.14,2.03-4.28,3.05-6.42,14.84,2.85,25.52,5.57,40.88,6.09Z"/>
      <path class="cls-48" d="m51.8,37.66c15.35-.83,25.97-3.75,40.76-6.9,1.06,2.12,2.12,4.24,3.17,6.35-7.54,3.19-12.07,5.02-17.38,8.5-7.85,5.15-11.66,9.82-15.25,15.93-5.33,9.07-7.29,15.88-8.48,26.12h-2.33s-2.33.05-2.33.05c-1.39-10.22-3.49-16.98-9-25.95-3.7-6.04-7.61-10.63-15.56-15.62-5.38-3.38-9.95-5.11-17.55-8.15,1.01-2.14,2.03-4.28,3.05-6.42,14.84,2.85,25.52,5.57,40.88,6.09Z"/>
    </g>
    <path class="cls-35" d="m51.8,37.66c15.35-.83,25.97-3.75,40.76-6.9,1.06,2.12,2.12,4.24,3.17,6.35-7.54,3.19-12.07,5.02-17.38,8.5-7.85,5.15-11.66,9.82-15.25,15.93-5.33,9.07-7.29,15.88-8.48,26.12h-2.33s-2.33.05-2.33.05c-1.39-10.22-3.49-16.98-9-25.95-3.7-6.04-7.61-10.63-15.56-15.62-5.38-3.38-9.95-5.11-17.55-8.15,1.01-2.14,2.03-4.28,3.05-6.42,14.84,2.85,25.52,5.57,40.88,6.09Z"/>
  </g>
</svg>