<?xml version="1.0" encoding="UTF-8"?>
<svg id="Calque_2" data-name="Calque 2" xmlns="http://www.w3.org/2000/svg" viewBox="0 0 104.75 104.75">
  <defs>
    <style>
      .cls-1 {
        fill: #c5421e;
      }

      .cls-1, .cls-2, .cls-3, .cls-4, .cls-5, .cls-6, .cls-7, .cls-8, .cls-9, .cls-10, .cls-11, .cls-12, .cls-13, .cls-14, .cls-15, .cls-16, .cls-17, .cls-18, .cls-19, .cls-20, .cls-21, .cls-22, .cls-23, .cls-24, .cls-25, .cls-26, .cls-27, .cls-28, .cls-29, .cls-30, .cls-31, .cls-32, .cls-33, .cls-34, .cls-35, .cls-36, .cls-37, .cls-38, .cls-39, .cls-40, .cls-41, .cls-42, .cls-43, .cls-44, .cls-45, .cls-46, .cls-47, .cls-48, .cls-49, .cls-50, .cls-51, .cls-52, .cls-53, .cls-54, .cls-55, .cls-56, .cls-57, .cls-58, .cls-59, .cls-60, .cls-61, .cls-62 {
        stroke-width: 0px;
      }

      .cls-1, .cls-2, .cls-3, .cls-4, .cls-5, .cls-6, .cls-7, .cls-8, .cls-9, .cls-10, .cls-11, .cls-12, .cls-13, .cls-14, .cls-16, .cls-17, .cls-18, .cls-19, .cls-20, .cls-21, .cls-22, .cls-23, .cls-24, .cls-25, .cls-26, .cls-27, .cls-28, .cls-29, .cls-30, .cls-31, .cls-32, .cls-33, .cls-34, .cls-35, .cls-36, .cls-37, .cls-38, .cls-39, .cls-40, .cls-41, .cls-42, .cls-43, .cls-44, .cls-45, .cls-46, .cls-47, .cls-48, .cls-49, .cls-50, .cls-51, .cls-52, .cls-53, .cls-54, .cls-55, .cls-56, .cls-57, .cls-58, .cls-59, .cls-60, .cls-61, .cls-62 {
        fill-rule: evenodd;
      }

      .cls-2 {
        fill: #d54b22;
      }

      .cls-3 {
        fill: #b83c1a;
      }

      .cls-4 {
        fill: #c6431e;
      }

      .cls-5 {
        fill: #b93c1b;
      }

      .cls-6 {
        fill: #e95627;
      }

      .cls-7 {
        fill: #dc4f24;
      }

      .cls-8 {
        fill: #e35325;
      }

      .cls-9 {
        fill: #bc3e1b;
      }

      .cls-10 {
        fill: #c7431e;
      }

      .cls-11 {
        fill: #f05929;
      }

      .cls-12 {
        fill: #e15225;
      }

      .cls-13 {
        fill: #ef5928;
      }

      .cls-14 {
        fill: #c8441e;
      }

      .cls-15, .cls-38 {
        fill: #f15a29;
      }

      .cls-16 {
        fill: #c2411d;
      }

      .cls-17 {
        fill: #ba3d1b;
      }

      .cls-18 {
        fill: #ed5828;
      }

      .cls-19 {
        fill: #bb3d1b;
      }

      .cls-20 {
        fill: #cf4820;
      }

      .cls-21 {
        fill: #e25225;
      }

      .cls-22 {
        fill: #e65426;
      }

      .cls-23 {
        fill: #ea5627;
      }

      .cls-24 {
        fill: #d24921;
      }

      .cls-25 {
        fill: #bf3f1c;
      }

      .cls-26 {
        fill: #e45326;
      }

      .cls-27 {
        fill: #de5024;
      }

      .cls-28 {
        fill: #f1f2f2;
      }

      .cls-29 {
        fill: #ee5828;
      }

      .cls-30 {
        fill: #c1401d;
      }

      .cls-31 {
        fill: #ec5728;
      }

      .cls-32 {
        fill: #db4e23;
      }

      .cls-33 {
        fill: #b73b1a;
      }

      .cls-34 {
        fill: #d44a21;
      }

      .cls-35 {
        fill: #c9441f;
      }

      .cls-36 {
        fill: #df5124;
      }

      .cls-37 {
        fill: #dd4f24;
      }

      .cls-39 {
        fill: #d94d23;
      }

      .cls-40 {
        fill: #d04820;
      }

      .cls-41 {
        fill: #ce4720;
      }

      .cls-42 {
        fill: #d84d23;
      }

      .cls-43 {
        fill: #e85527;
      }

      .cls-44 {
        fill: #c0401c;
      }

      .cls-45 {
        fill: #ca451f;
      }

      .cls-46 {
        fill: #c4421d;
      }

      .cls-47 {
        fill: #d64c22;
      }

      .cls-48 {
        fill: #e55426;
      }

      .cls-49 {
        fill: #bd3e1c;
      }

      .cls-50 {
        fill: #cd4720;
      }

      .cls-51 {
        fill: #e05125;
      }

      .cls-52 {
        fill: #d74c22;
      }

      .cls-53 {
        fill: #c3411d;
      }

      .cls-54 {
        fill: #d34a21;
      }

      .cls-55 {
        fill: #cb461f;
      }

      .cls-56 {
        fill: #d14921;
      }

      .cls-57 {
        fill: #d44b22;
      }

      .cls-58 {
        fill: #da4e23;
      }

      .cls-59 {
        fill: #be3f1c;
      }

      .cls-60 {
        fill: #e75526;
      }

      .cls-61 {
        fill: #eb5727;
      }

      .cls-62 {
        fill: #cc461f;
      }
    </style>
  </defs>
  <g id="Calque_2-2" data-name="Calque 2">
    <path class="cls-15" d="m104.75,52.37C104.75,23.45,81.3,0,52.37,0S0,23.45,0,52.37s23.45,52.37,52.37,52.37,52.37-23.45,52.37-52.37Z"/>
    <g>
      <path class="cls-38" d="m70.18,25.88c.28.28.56.56.84.84,2.7,1.2,5.52,1.93,8.32,2.8,2.22.69,3.83,1.11,5.24,1.96,1.09.65,2.07,1.56,3.12,3.04,1.72,2.32,3.09,4.32,4.6,6.78.6.93,1.19,1.87,1.79,2.81,1.36,1.72,1.9,2.48,2.88,4.44-.75.62-1.51,1.25-2.26,1.87-.98.66-3.81,2.72-6.22,4.34-1.6,1.08-3.01,1.96-3.58,2.12-.23-.07-2.3-2.37-2.54-2.66-.62-.73-1.85-3.03-2.61-3.18-.18-.04-.33.04-.44.28-.37.79-.58,2.34-.76,3.22-.46,2.34-.93,4.49-1.11,6.88-.78,10.03,2.94,21.24,3.23,31.87-.81.34-1.61.67-2.41,1.01-8,1.82-28.91,2.61-36.67-.67-.91-.39-1.78-.56-1.57-1.44,1.25-5.12,1.52-10.74,2.81-15.85,2.31-9.19,1.71-11.68,1.3-21-.11-1.17-.08-3.38-.72-3.79-.5-.33-3.96,3.63-4.97,4.49-4.12-1.55-8.47-4.84-11.53-8.03.53-.78,1.05-1.57,1.56-2.37,1.21-1.89,2.36-3.71,3.6-5.52,1.8-2.64,3.34-5.18,5.44-7.58,1.4-1.59,2.47-1.76,4.48-2.35,1.75-.51,4.38-1.27,6.89-2.12,2.19-.74,4.29-1.55,5.64-2.32.67-.38.58-.3,1.35-.27,1.15.04,2.29.06,3.43.06,2.15.01,4.3-.04,6.45-.04.94,0,3.89-.18,4.44.37Z"/>
      <path class="cls-11" d="m70.03,25.73c.28.28.56.56.84.84,2.7,1.2,5.52,1.93,8.32,2.8,2.22.69,3.83,1.11,5.24,1.96,1.09.65,2.07,1.56,3.12,3.04,1.72,2.32,3.09,4.32,4.6,6.78.6.93,1.19,1.87,1.79,2.81,1.36,1.72,1.9,2.48,2.88,4.44-.75.62-1.51,1.25-2.26,1.87-.98.66-3.81,2.72-6.22,4.34-1.6,1.08-3.01,1.96-3.58,2.12-.23-.07-2.3-2.37-2.54-2.66-.62-.73-1.85-3.03-2.61-3.18-.18-.04-.33.04-.44.28-.37.79-.58,2.34-.76,3.22-.46,2.34-.93,4.49-1.11,6.88-.78,10.03,2.94,21.24,3.23,31.87-.81.34-1.61.67-2.42,1.01-8,1.82-28.91,2.61-36.67-.67-.91-.39-1.78-.56-1.57-1.44,1.25-5.12,1.52-10.74,2.81-15.85,2.31-9.19,1.71-11.68,1.3-21-.11-1.17-.08-3.38-.72-3.79-.5-.33-3.96,3.63-4.97,4.49-4.12-1.55-8.47-4.84-11.53-8.03.53-.78,1.05-1.57,1.56-2.37,1.21-1.89,2.36-3.71,3.6-5.52,1.8-2.64,3.34-5.18,5.44-7.58,1.4-1.59,2.47-1.76,4.48-2.35,1.75-.51,4.38-1.27,6.89-2.12,2.19-.74,4.29-1.55,5.64-2.32.67-.38.58-.3,1.35-.27,1.15.04,2.29.06,3.43.06,2.15.01,4.3-.04,6.45-.04.94,0,3.89-.18,4.44.37Z"/>
      <path class="cls-13" d="m69.88,25.58c.28.28.56.56.84.84,2.7,1.2,5.52,1.93,8.32,2.8,2.22.69,3.83,1.11,5.24,1.96,1.09.65,2.07,1.56,3.12,3.04,1.72,2.32,3.09,4.32,4.6,6.78.6.93,1.19,1.87,1.79,2.81,1.36,1.72,1.9,2.48,2.88,4.44-.75.62-1.51,1.25-2.26,1.87-.98.66-3.81,2.72-6.22,4.34-1.6,1.08-3.01,1.96-3.58,2.12-.23-.07-2.3-2.37-2.54-2.66-.62-.73-1.85-3.03-2.61-3.18-.18-.04-.33.04-.44.28-.37.79-.58,2.34-.76,3.22-.46,2.34-.93,4.49-1.11,6.88-.78,10.03,2.94,21.24,3.23,31.87-.81.34-1.61.67-2.42,1.01-8,1.82-28.91,2.61-36.67-.67-.91-.39-1.78-.56-1.57-1.44,1.25-5.12,1.52-10.74,2.81-15.85,2.31-9.19,1.71-11.68,1.3-21-.11-1.17-.08-3.38-.72-3.79-.5-.33-3.96,3.63-4.97,4.49-4.12-1.55-8.47-4.84-11.53-8.03.53-.78,1.05-1.57,1.56-2.37,1.21-1.89,2.36-3.71,3.6-5.52,1.8-2.64,3.34-5.18,5.44-7.58,1.4-1.59,2.47-1.76,4.48-2.35,1.75-.51,4.38-1.27,6.89-2.12,2.19-.74,4.29-1.55,5.64-2.32.67-.38.58-.3,1.35-.27,1.15.04,2.29.06,3.43.06,2.15.01,4.3-.04,6.45-.04.94,0,3.89-.18,4.44.37Z"/>
      <path class="cls-29" d="m69.73,25.43c.28.28.56.56.84.84,2.7,1.2,5.52,1.93,8.32,2.8,2.22.69,3.83,1.11,5.24,1.96,1.09.65,2.07,1.56,3.12,3.04,1.72,2.32,3.09,4.32,4.6,6.78.6.93,1.19,1.87,1.79,2.81,1.36,1.72,1.9,2.48,2.88,4.44-.75.62-1.51,1.25-2.26,1.87-.98.66-3.81,2.72-6.22,4.34-1.6,1.08-3.01,1.96-3.58,2.12-.23-.07-2.3-2.37-2.54-2.66-.62-.73-1.85-3.03-2.61-3.18-.18-.04-.33.04-.44.28-.37.79-.58,2.34-.76,3.22-.46,2.34-.93,4.49-1.11,6.88-.78,10.03,2.94,21.24,3.23,31.87-.81.34-1.61.67-2.42,1.01-8,1.82-28.91,2.61-36.67-.67-.91-.39-1.78-.56-1.57-1.44,1.25-5.12,1.52-10.74,2.81-15.85,2.31-9.19,1.71-11.68,1.3-21-.11-1.17-.08-3.38-.72-3.79-.5-.33-3.96,3.63-4.97,4.49-4.12-1.55-8.47-4.84-11.53-8.03.53-.78,1.05-1.57,1.56-2.37,1.21-1.89,2.36-3.71,3.6-5.52,1.8-2.64,3.34-5.18,5.44-7.58,1.4-1.59,2.47-1.76,4.48-2.35,1.75-.51,4.38-1.27,6.89-2.12,2.19-.74,4.29-1.55,5.64-2.32.67-.38.58-.3,1.35-.27,1.15.04,2.29.06,3.43.06,2.15.01,4.3-.04,6.45-.04.94,0,3.89-.18,4.44.37Z"/>
      <path class="cls-18" d="m69.58,25.28c.28.28.56.56.84.84,2.7,1.2,5.52,1.93,8.32,2.8,2.22.69,3.83,1.11,5.24,1.96,1.09.65,2.07,1.56,3.12,3.04,1.72,2.32,3.09,4.32,4.6,6.78.6.93,1.19,1.87,1.79,2.81,1.36,1.72,1.9,2.48,2.88,4.44-.75.62-1.51,1.25-2.26,1.87-.98.66-3.81,2.72-6.22,4.34-1.6,1.08-3.01,1.96-3.58,2.12-.23-.07-2.3-2.37-2.54-2.66-.62-.73-1.85-3.03-2.61-3.18-.18-.04-.33.04-.44.28-.37.79-.58,2.34-.76,3.22-.46,2.34-.93,4.49-1.11,6.88-.78,10.03,2.94,21.24,3.23,31.87-.81.34-1.61.67-2.42,1.01-8,1.82-28.91,2.61-36.67-.67-.91-.39-1.78-.56-1.57-1.44,1.25-5.12,1.52-10.74,2.81-15.85,2.31-9.19,1.71-11.68,1.3-21-.11-1.17-.08-3.38-.72-3.79-.5-.33-3.96,3.63-4.97,4.49-4.12-1.55-8.47-4.84-11.53-8.03.53-.78,1.05-1.57,1.56-2.37,1.21-1.89,2.36-3.71,3.6-5.52,1.8-2.64,3.34-5.18,5.44-7.58,1.4-1.59,2.47-1.76,4.48-2.35,1.75-.51,4.38-1.27,6.89-2.12,2.19-.74,4.29-1.55,5.64-2.32.67-.38.58-.3,1.35-.27,1.15.04,2.29.06,3.43.06,2.15.01,4.3-.04,6.45-.04.94,0,3.89-.18,4.44.37Z"/>
      <path class="cls-31" d="m69.43,25.13c.28.28.56.56.84.84,2.7,1.2,5.52,1.93,8.32,2.8,2.22.69,3.83,1.11,5.24,1.96,1.09.65,2.07,1.56,3.12,3.04,1.72,2.32,3.09,4.32,4.6,6.78.6.93,1.19,1.87,1.79,2.81,1.36,1.72,1.9,2.48,2.88,4.44-.75.62-1.51,1.25-2.26,1.87-.98.66-3.81,2.72-6.22,4.34-1.6,1.08-3.01,1.96-3.58,2.12-.23-.07-2.3-2.37-2.54-2.66-.62-.73-1.85-3.03-2.61-3.18-.18-.04-.33.04-.44.28-.37.79-.58,2.34-.76,3.22-.46,2.34-.93,4.49-1.11,6.88-.78,10.03,2.94,21.24,3.23,31.87-.81.34-1.61.67-2.42,1.01-8,1.82-28.91,2.61-36.67-.67-.91-.39-1.78-.56-1.57-1.44,1.25-5.12,1.52-10.74,2.81-15.85,2.31-9.19,1.71-11.68,1.3-21-.11-1.17-.08-3.38-.72-3.79-.5-.33-3.96,3.63-4.97,4.49-4.12-1.55-8.47-4.84-11.53-8.03.53-.78,1.05-1.57,1.56-2.37,1.21-1.89,2.36-3.71,3.6-5.52,1.8-2.64,3.34-5.18,5.44-7.58,1.4-1.59,2.47-1.76,4.48-2.35,1.75-.51,4.38-1.27,6.89-2.12,2.19-.74,4.29-1.55,5.64-2.32.67-.38.58-.3,1.35-.27,1.15.04,2.29.06,3.43.06,2.15.01,4.3-.04,6.45-.04.94,0,3.89-.18,4.44.37Z"/>
      <path class="cls-61" d="m69.28,24.98c.28.28.56.56.84.84,2.7,1.2,5.52,1.93,8.32,2.8,2.22.69,3.83,1.11,5.24,1.96,1.09.65,2.07,1.56,3.12,3.04,1.72,2.32,3.09,4.32,4.6,6.78.6.93,1.19,1.87,1.79,2.81,1.36,1.72,1.9,2.48,2.88,4.44-.75.62-1.51,1.25-2.26,1.87-.98.66-3.81,2.72-6.22,4.34-1.6,1.08-3.01,1.96-3.58,2.12-.23-.07-2.3-2.37-2.54-2.66-.62-.73-1.85-3.03-2.61-3.18-.18-.04-.33.04-.44.28-.37.79-.58,2.34-.76,3.22-.46,2.34-.93,4.49-1.11,6.88-.78,10.03,2.94,21.24,3.23,31.87-.81.34-1.61.67-2.42,1.01-8,1.82-28.91,2.61-36.67-.67-.91-.39-1.78-.56-1.57-1.44,1.25-5.12,1.52-10.74,2.81-15.85,2.31-9.19,1.71-11.68,1.3-21-.11-1.17-.08-3.38-.72-3.79-.5-.33-3.96,3.63-4.97,4.49-4.12-1.55-8.47-4.84-11.53-8.03.53-.78,1.05-1.57,1.56-2.37,1.21-1.89,2.36-3.71,3.6-5.52,1.8-2.64,3.34-5.18,5.44-7.58,1.4-1.59,2.47-1.76,4.48-2.35,1.75-.51,4.38-1.27,6.89-2.12,2.19-.74,4.29-1.55,5.64-2.32.67-.38.58-.3,1.35-.27,1.15.04,2.29.06,3.43.06,2.15.01,4.3-.04,6.45-.04.94,0,3.89-.18,4.44.37Z"/>
      <path class="cls-23" d="m69.13,24.83c.28.28.56.56.84.84,2.7,1.2,5.52,1.93,8.32,2.8,2.22.69,3.83,1.11,5.24,1.96,1.09.65,2.07,1.56,3.12,3.04,1.72,2.32,3.09,4.32,4.6,6.78.6.93,1.19,1.87,1.79,2.81,1.36,1.72,1.9,2.48,2.88,4.44-.75.62-1.51,1.25-2.26,1.87-.98.66-3.81,2.72-6.22,4.34-1.6,1.08-3.01,1.96-3.58,2.12-.23-.07-2.3-2.37-2.54-2.66-.62-.73-1.85-3.03-2.61-3.18-.18-.04-.33.04-.44.28-.37.79-.58,2.34-.76,3.22-.46,2.34-.93,4.49-1.11,6.88-.78,10.03,2.94,21.24,3.23,31.87-.81.34-1.61.67-2.42,1.01-8,1.82-28.91,2.61-36.67-.67-.91-.39-1.78-.56-1.57-1.44,1.25-5.12,1.52-10.74,2.81-15.85,2.31-9.19,1.71-11.68,1.3-21-.11-1.17-.08-3.38-.72-3.79-.5-.33-3.96,3.63-4.97,4.49-4.12-1.55-8.47-4.84-11.53-8.03.53-.78,1.05-1.57,1.56-2.37,1.21-1.89,2.36-3.71,3.6-5.52,1.8-2.64,3.34-5.18,5.44-7.58,1.4-1.59,2.47-1.76,4.48-2.35,1.75-.51,4.38-1.27,6.89-2.12,2.19-.74,4.29-1.55,5.64-2.32.67-.38.58-.3,1.35-.27,1.15.04,2.29.06,3.43.06,2.15.01,4.3-.04,6.45-.04.94,0,3.89-.18,4.44.37Z"/>
      <path class="cls-6" d="m68.98,24.68c.28.28.56.56.84.84,2.7,1.2,5.52,1.93,8.32,2.8,2.22.69,3.83,1.11,5.24,1.96,1.09.65,2.07,1.56,3.12,3.04,1.72,2.32,3.09,4.32,4.6,6.78.6.93,1.19,1.87,1.79,2.81,1.36,1.72,1.9,2.48,2.88,4.44-.75.62-1.51,1.25-2.26,1.87-.98.66-3.81,2.72-6.22,4.34-1.6,1.08-3.01,1.96-3.58,2.12-.23-.07-2.3-2.37-2.54-2.66-.62-.73-1.85-3.03-2.61-3.18-.18-.04-.33.04-.44.28-.37.79-.58,2.34-.76,3.22-.46,2.34-.93,4.49-1.11,6.88-.78,10.03,2.94,21.24,3.23,31.87-.81.34-1.61.67-2.42,1.01-8,1.82-28.91,2.61-36.67-.67-.91-.39-1.78-.56-1.57-1.44,1.25-5.12,1.52-10.74,2.81-15.85,2.31-9.19,1.71-11.68,1.3-21-.11-1.17-.08-3.38-.72-3.79-.5-.33-3.96,3.63-4.97,4.49-4.12-1.55-8.47-4.84-11.53-8.03.53-.78,1.05-1.57,1.56-2.37,1.21-1.89,2.36-3.71,3.6-5.52,1.8-2.64,3.34-5.18,5.44-7.58,1.4-1.59,2.47-1.76,4.48-2.35,1.75-.51,4.38-1.27,6.89-2.12,2.19-.74,4.29-1.55,5.64-2.32.67-.38.58-.3,1.35-.27,1.15.04,2.29.06,3.43.06,2.15.01,4.3-.04,6.45-.04.94,0,3.89-.18,4.44.37Z"/>
      <path class="cls-43" d="m68.83,24.53c.28.28.56.56.84.84,2.7,1.2,5.52,1.93,8.32,2.8,2.22.69,3.83,1.11,5.24,1.96,1.09.65,2.07,1.56,3.12,3.04,1.72,2.32,3.09,4.32,4.6,6.78.6.93,1.19,1.87,1.79,2.81,1.36,1.72,1.9,2.48,2.88,4.44-.75.62-1.51,1.25-2.26,1.87-.98.66-3.81,2.72-6.22,4.34-1.6,1.08-3.01,1.96-3.58,2.12-.23-.07-2.3-2.37-2.54-2.66-.62-.73-1.85-3.03-2.61-3.18-.18-.04-.33.04-.44.28-.37.79-.58,2.34-.76,3.22-.46,2.34-.93,4.49-1.11,6.88-.78,10.03,2.94,21.24,3.23,31.87-.81.34-1.61.67-2.42,1.01-8,1.82-28.91,2.61-36.67-.67-.91-.39-1.78-.56-1.57-1.44,1.25-5.12,1.52-10.74,2.81-15.85,2.31-9.19,1.71-11.68,1.3-21-.11-1.17-.08-3.38-.72-3.79-.5-.33-3.96,3.63-4.97,4.49-4.12-1.55-8.47-4.84-11.53-8.03.53-.78,1.05-1.57,1.56-2.37,1.21-1.89,2.36-3.71,3.6-5.52,1.8-2.64,3.34-5.18,5.44-7.58,1.4-1.59,2.47-1.76,4.48-2.35,1.75-.51,4.38-1.27,6.89-2.12,2.19-.74,4.29-1.55,5.64-2.32.67-.38.58-.3,1.35-.27,1.15.04,2.29.06,3.43.06,2.15.01,4.3-.04,6.45-.04.94,0,3.89-.18,4.44.37Z"/>
      <path class="cls-60" d="m68.69,24.39c.28.28.56.56.84.84,2.7,1.2,5.52,1.93,8.32,2.8,2.22.69,3.83,1.11,5.24,1.96,1.09.65,2.07,1.56,3.12,3.04,1.72,2.32,3.09,4.32,4.6,6.78.6.93,1.19,1.87,1.79,2.81,1.36,1.72,1.9,2.48,2.88,4.44-.75.62-1.51,1.25-2.26,1.87-.98.66-3.81,2.72-6.22,4.34-1.6,1.08-3.01,1.96-3.58,2.12-.23-.07-2.3-2.37-2.54-2.66-.62-.73-1.85-3.03-2.61-3.18-.18-.04-.33.04-.44.28-.37.79-.58,2.34-.76,3.22-.46,2.34-.93,4.49-1.11,6.88-.78,10.03,2.94,21.24,3.23,31.87-.81.34-1.61.67-2.42,1.01-8,1.82-28.91,2.61-36.67-.67-.91-.39-1.78-.56-1.57-1.44,1.25-5.12,1.52-10.74,2.81-15.85,2.31-9.19,1.71-11.68,1.3-21-.11-1.17-.08-3.38-.72-3.79-.5-.33-3.96,3.63-4.97,4.49-4.12-1.55-8.47-4.84-11.53-8.03.53-.78,1.05-1.57,1.56-2.37,1.21-1.89,2.36-3.71,3.6-5.52,1.8-2.64,3.34-5.18,5.44-7.58,1.4-1.59,2.47-1.76,4.48-2.35,1.75-.51,4.38-1.27,6.89-2.12,2.19-.74,4.29-1.55,5.64-2.32.67-.38.58-.3,1.35-.27,1.15.04,2.29.06,3.43.06,2.15.01,4.3-.04,6.45-.04.94,0,3.89-.18,4.44.37Z"/>
      <path class="cls-22" d="m68.54,24.24c.28.28.56.56.84.84,2.7,1.2,5.52,1.93,8.32,2.8,2.22.69,3.83,1.11,5.24,1.96,1.09.65,2.07,1.56,3.12,3.04,1.72,2.32,3.09,4.32,4.6,6.78.6.93,1.19,1.87,1.79,2.81,1.36,1.72,1.9,2.48,2.88,4.44-.75.62-1.51,1.25-2.26,1.87-.98.66-3.81,2.72-6.22,4.34-1.6,1.08-3.01,1.96-3.58,2.12-.23-.07-2.3-2.37-2.54-2.66-.62-.73-1.85-3.03-2.61-3.18-.18-.04-.33.04-.44.28-.37.79-.58,2.34-.76,3.22-.46,2.34-.93,4.49-1.11,6.88-.78,10.03,2.94,21.24,3.23,31.87-.81.34-1.61.67-2.42,1.01-8,1.82-28.91,2.61-36.67-.67-.91-.39-1.78-.56-1.57-1.44,1.25-5.12,1.52-10.74,2.81-15.85,2.31-9.19,1.71-11.68,1.3-21-.11-1.17-.08-3.38-.72-3.79-.5-.33-3.96,3.63-4.97,4.49-4.12-1.55-8.47-4.84-11.53-8.03.53-.78,1.05-1.57,1.56-2.37,1.21-1.89,2.36-3.71,3.6-5.52,1.8-2.64,3.34-5.18,5.44-7.58,1.4-1.59,2.47-1.76,4.48-2.35,1.75-.51,4.38-1.27,6.89-2.12,2.19-.74,4.29-1.55,5.64-2.32.67-.38.58-.3,1.35-.27,1.15.04,2.29.06,3.43.06,2.15.01,4.3-.04,6.45-.04.94,0,3.89-.18,4.44.37Z"/>
      <path class="cls-48" d="m68.39,24.09c.28.28.56.56.84.84,2.7,1.2,5.52,1.93,8.32,2.8,2.22.69,3.83,1.11,5.24,1.96,1.09.65,2.07,1.56,3.12,3.04,1.72,2.32,3.09,4.32,4.6,6.78.6.93,1.19,1.87,1.79,2.81,1.36,1.72,1.9,2.48,2.88,4.44-.75.62-1.51,1.25-2.26,1.87-.98.66-3.81,2.72-6.22,4.34-1.6,1.08-3.01,1.96-3.58,2.12-.23-.07-2.3-2.37-2.54-2.66-.62-.73-1.85-3.03-2.61-3.18-.18-.04-.33.04-.44.28-.37.79-.58,2.34-.76,3.22-.46,2.34-.93,4.49-1.11,6.88-.78,10.03,2.94,21.24,3.23,31.87-.81.34-1.61.67-2.42,1.01-8,1.82-28.91,2.61-36.67-.67-.91-.39-1.78-.56-1.57-1.44,1.25-5.12,1.52-10.74,2.81-15.85,2.31-9.19,1.71-11.68,1.3-21-.11-1.17-.08-3.38-.72-3.79-.5-.33-3.96,3.63-4.97,4.49-4.12-1.55-8.47-4.84-11.53-8.03.53-.78,1.05-1.57,1.56-2.37,1.21-1.89,2.36-3.71,3.6-5.52,1.8-2.64,3.34-5.18,5.44-7.58,1.4-1.59,2.47-1.76,4.48-2.35,1.75-.51,4.38-1.27,6.89-2.12,2.19-.74,4.29-1.55,5.64-2.32.67-.38.58-.3,1.35-.27,1.15.04,2.29.06,3.43.06,2.15.01,4.3-.04,6.45-.04.94,0,3.89-.18,4.44.37Z"/>
      <path class="cls-26" d="m68.24,23.94c.28.28.56.56.84.84,2.7,1.2,5.52,1.93,8.32,2.8,2.22.69,3.83,1.11,5.24,1.96,1.09.65,2.07,1.56,3.12,3.04,1.72,2.32,3.09,4.32,4.6,6.78.6.93,1.19,1.87,1.79,2.81,1.36,1.72,1.9,2.48,2.88,4.44-.75.62-1.51,1.25-2.26,1.87-.98.66-3.81,2.72-6.22,4.34-1.6,1.08-3.01,1.96-3.58,2.12-.23-.07-2.3-2.37-2.54-2.66-.62-.73-1.85-3.03-2.61-3.18-.18-.04-.33.04-.44.28-.37.79-.58,2.34-.76,3.22-.46,2.34-.93,4.49-1.11,6.88-.78,10.03,2.94,21.24,3.23,31.87-.81.34-1.61.67-2.42,1.01-8,1.82-28.91,2.61-36.67-.67-.91-.39-1.78-.56-1.57-1.44,1.25-5.12,1.52-10.74,2.81-15.85,2.31-9.19,1.71-11.68,1.3-21-.11-1.17-.08-3.38-.72-3.79-.5-.33-3.96,3.63-4.97,4.49-4.12-1.55-8.47-4.84-11.53-8.03.53-.78,1.05-1.57,1.56-2.37,1.21-1.89,2.36-3.71,3.6-5.52,1.8-2.64,3.34-5.18,5.44-7.58,1.4-1.59,2.47-1.76,4.48-2.35,1.75-.51,4.38-1.27,6.89-2.12,2.19-.74,4.29-1.55,5.64-2.32.67-.38.58-.3,1.35-.27,1.15.04,2.29.06,3.43.06,2.15.01,4.3-.04,6.45-.04.94,0,3.89-.18,4.44.37Z"/>
      <path class="cls-8" d="m68.09,23.79c.28.28.56.56.84.84,2.7,1.2,5.52,1.93,8.32,2.8,2.22.69,3.83,1.11,5.24,1.96,1.09.65,2.07,1.56,3.12,3.04,1.72,2.32,3.09,4.32,4.6,6.78.6.93,1.19,1.87,1.79,2.81,1.36,1.72,1.9,2.48,2.88,4.44-.75.62-1.51,1.25-2.26,1.87-.98.66-3.81,2.72-6.22,4.34-1.6,1.08-3.01,1.96-3.58,2.12-.23-.07-2.3-2.37-2.54-2.66-.62-.73-1.85-3.03-2.61-3.18-.18-.04-.33.04-.44.28-.37.79-.58,2.34-.76,3.22-.46,2.34-.93,4.49-1.11,6.88-.78,10.03,2.94,21.24,3.23,31.87-.81.34-1.61.67-2.42,1.01-8,1.82-28.91,2.61-36.67-.67-.91-.39-1.78-.56-1.57-1.44,1.25-5.12,1.52-10.74,2.81-15.85,2.31-9.19,1.71-11.68,1.3-21-.11-1.17-.08-3.38-.72-3.79-.5-.33-3.96,3.63-4.97,4.49-4.12-1.55-8.47-4.84-11.53-8.03.53-.78,1.05-1.57,1.56-2.37,1.21-1.89,2.36-3.71,3.6-5.52,1.8-2.64,3.34-5.18,5.44-7.58,1.4-1.59,2.47-1.76,4.48-2.35,1.75-.51,4.38-1.27,6.89-2.12,2.19-.74,4.29-1.55,5.64-2.32.67-.38.58-.3,1.35-.27,1.15.04,2.29.06,3.43.06,2.15.01,4.3-.04,6.45-.04.94,0,3.89-.18,4.44.37Z"/>
      <path class="cls-21" d="m67.94,23.64c.28.28.56.56.84.84,2.7,1.2,5.52,1.93,8.32,2.8,2.22.69,3.83,1.11,5.24,1.96,1.09.65,2.07,1.56,3.12,3.04,1.72,2.32,3.09,4.32,4.6,6.78.6.93,1.19,1.87,1.79,2.81,1.36,1.72,1.9,2.48,2.88,4.44-.75.62-1.51,1.25-2.26,1.87-.98.66-3.81,2.72-6.22,4.34-1.6,1.08-3.01,1.96-3.58,2.12-.23-.07-2.3-2.37-2.54-2.66-.62-.73-1.85-3.03-2.61-3.18-.18-.04-.33.04-.44.28-.37.79-.58,2.34-.76,3.22-.46,2.34-.93,4.49-1.11,6.88-.78,10.03,2.94,21.24,3.23,31.87-.81.34-1.61.67-2.42,1.01-8,1.82-28.91,2.61-36.67-.67-.91-.39-1.78-.56-1.57-1.44,1.25-5.12,1.52-10.74,2.81-15.85,2.31-9.19,1.71-11.68,1.3-21-.11-1.17-.08-3.38-.72-3.79-.5-.33-3.96,3.63-4.97,4.49-4.12-1.55-8.47-4.84-11.53-8.03.53-.78,1.05-1.57,1.56-2.37,1.21-1.89,2.36-3.71,3.6-5.52,1.8-2.64,3.34-5.18,5.44-7.58,1.4-1.59,2.47-1.76,4.48-2.35,1.75-.51,4.38-1.27,6.89-2.12,2.19-.74,4.29-1.55,5.64-2.32.67-.38.58-.3,1.35-.27,1.15.04,2.29.06,3.43.06,2.15.01,4.3-.04,6.45-.04.94,0,3.89-.18,4.44.37Z"/>
      <path class="cls-12" d="m67.79,23.49c.28.28.56.56.84.84,2.7,1.2,5.52,1.93,8.32,2.8,2.22.69,3.83,1.11,5.24,1.96,1.09.65,2.07,1.56,3.12,3.04,1.72,2.32,3.09,4.32,4.6,6.78.6.93,1.19,1.87,1.79,2.81,1.36,1.72,1.9,2.48,2.88,4.44-.75.62-1.51,1.25-2.26,1.87-.98.66-3.81,2.72-6.22,4.34-1.6,1.08-3.01,1.96-3.58,2.12-.23-.07-2.3-2.37-2.54-2.66-.62-.73-1.85-3.03-2.61-3.18-.18-.04-.33.04-.44.28-.37.79-.58,2.34-.76,3.22-.46,2.34-.93,4.49-1.11,6.88-.78,10.03,2.94,21.24,3.23,31.87-.81.34-1.61.67-2.42,1.01-8,1.82-28.91,2.61-36.67-.67-.91-.39-1.78-.56-1.57-1.44,1.25-5.12,1.52-10.74,2.81-15.85,2.31-9.19,1.71-11.68,1.3-21-.11-1.17-.08-3.38-.72-3.79-.5-.33-3.96,3.63-4.97,4.49-4.12-1.55-8.47-4.84-11.53-8.03.53-.78,1.05-1.57,1.56-2.37,1.21-1.89,2.36-3.71,3.6-5.52,1.8-2.64,3.34-5.18,5.44-7.58,1.4-1.59,2.47-1.76,4.48-2.35,1.75-.51,4.38-1.27,6.89-2.12,2.19-.74,4.29-1.55,5.64-2.32.67-.38.58-.3,1.35-.27,1.15.04,2.29.06,3.43.06,2.15.01,4.3-.04,6.45-.04.94,0,3.89-.18,4.44.37Z"/>
      <path class="cls-51" d="m67.64,23.34c.28.28.56.56.84.84,2.7,1.2,5.52,1.93,8.32,2.8,2.22.69,3.83,1.11,5.24,1.96,1.09.65,2.07,1.56,3.12,3.04,1.72,2.32,3.09,4.32,4.6,6.78.6.93,1.19,1.87,1.79,2.81,1.36,1.72,1.9,2.48,2.88,4.44-.75.62-1.51,1.25-2.26,1.87-.98.66-3.81,2.72-6.22,4.34-1.6,1.08-3.01,1.96-3.58,2.12-.23-.07-2.3-2.37-2.54-2.66-.62-.73-1.85-3.03-2.61-3.18-.18-.04-.33.04-.44.28-.37.79-.58,2.34-.76,3.22-.46,2.34-.93,4.49-1.11,6.88-.78,10.03,2.94,21.24,3.23,31.87-.81.34-1.61.67-2.42,1.01-8,1.82-28.91,2.61-36.67-.67-.91-.39-1.78-.56-1.57-1.44,1.25-5.12,1.52-10.74,2.81-15.85,2.31-9.19,1.71-11.68,1.3-21-.11-1.17-.08-3.38-.72-3.79-.5-.33-3.96,3.63-4.97,4.49-4.12-1.55-8.47-4.84-11.53-8.03.53-.78,1.05-1.57,1.56-2.37,1.21-1.89,2.36-3.71,3.6-5.52,1.8-2.64,3.34-5.18,5.44-7.58,1.4-1.59,2.47-1.76,4.48-2.35,1.75-.51,4.38-1.27,6.89-2.12,2.19-.74,4.29-1.55,5.64-2.32.67-.38.58-.3,1.35-.27,1.15.04,2.29.06,3.43.06,2.15.01,4.3-.04,6.45-.04.94,0,3.89-.18,4.44.37Z"/>
      <path class="cls-36" d="m67.49,23.19c.28.28.56.56.84.84,2.7,1.2,5.52,1.93,8.32,2.8,2.22.69,3.83,1.11,5.24,1.96,1.09.65,2.07,1.56,3.12,3.04,1.72,2.32,3.09,4.32,4.6,6.78.6.93,1.19,1.87,1.79,2.81,1.36,1.72,1.9,2.48,2.88,4.44-.75.62-1.51,1.25-2.26,1.87-.98.66-3.81,2.72-6.22,4.34-1.6,1.08-3.01,1.96-3.58,2.12-.23-.07-2.3-2.37-2.54-2.66-.62-.73-1.85-3.03-2.61-3.18-.18-.04-.33.04-.44.28-.37.79-.58,2.34-.76,3.22-.46,2.34-.93,4.49-1.11,6.88-.78,10.03,2.94,21.24,3.23,31.87-.81.34-1.61.67-2.42,1.01-8,1.82-28.91,2.61-36.67-.67-.91-.39-1.78-.56-1.57-1.44,1.25-5.12,1.52-10.74,2.81-15.85,2.31-9.19,1.71-11.68,1.3-21-.11-1.17-.08-3.38-.72-3.79-.5-.33-3.96,3.63-4.97,4.49-4.12-1.55-8.47-4.84-11.53-8.03.53-.78,1.05-1.57,1.56-2.37,1.21-1.89,2.36-3.71,3.6-5.52,1.8-2.64,3.34-5.18,5.44-7.58,1.4-1.59,2.47-1.76,4.48-2.35,1.75-.51,4.38-1.27,6.89-2.12,2.19-.74,4.29-1.55,5.64-2.32.67-.38.58-.3,1.35-.27,1.15.04,2.29.06,3.43.06,2.15.01,4.3-.04,6.45-.04.94,0,3.89-.18,4.44.37Z"/>
      <path class="cls-27" d="m67.34,23.04c.28.28.56.56.84.84,2.7,1.2,5.52,1.93,8.32,2.8,2.22.69,3.83,1.11,5.24,1.96,1.09.65,2.07,1.56,3.12,3.04,1.72,2.32,3.09,4.32,4.6,6.78.6.93,1.19,1.87,1.79,2.81,1.36,1.72,1.9,2.48,2.88,4.44-.75.62-1.51,1.25-2.26,1.87-.98.66-3.81,2.72-6.22,4.34-1.6,1.08-3.01,1.96-3.58,2.12-.23-.07-2.3-2.37-2.54-2.66-.62-.73-1.85-3.03-2.61-3.18-.18-.04-.33.04-.44.28-.37.79-.58,2.34-.76,3.22-.46,2.34-.93,4.49-1.11,6.88-.78,10.03,2.94,21.24,3.23,31.87-.81.34-1.61.67-2.42,1.01-8,1.82-28.91,2.61-36.67-.67-.91-.39-1.78-.56-1.57-1.44,1.25-5.12,1.52-10.74,2.81-15.85,2.31-9.19,1.71-11.68,1.3-21-.11-1.17-.08-3.38-.72-3.79-.5-.33-3.96,3.63-4.97,4.49-4.12-1.55-8.47-4.84-11.53-8.03.53-.78,1.05-1.57,1.56-2.37,1.21-1.89,2.36-3.71,3.6-5.52,1.8-2.64,3.34-5.18,5.44-7.58,1.4-1.59,2.47-1.76,4.48-2.35,1.75-.51,4.38-1.27,6.89-2.12,2.19-.74,4.29-1.55,5.64-2.32.67-.38.58-.3,1.35-.27,1.15.04,2.29.06,3.43.06,2.15.01,4.3-.04,6.45-.04.94,0,3.89-.18,4.44.37Z"/>
      <path class="cls-37" d="m67.19,22.89c.28.28.56.56.84.84,2.7,1.2,5.52,1.93,8.32,2.8,2.22.69,3.83,1.11,5.24,1.96,1.09.65,2.07,1.56,3.12,3.04,1.72,2.32,3.09,4.32,4.6,6.78.6.93,1.19,1.87,1.79,2.81,1.36,1.72,1.9,2.48,2.88,4.44-.75.62-1.51,1.25-2.26,1.87-.98.66-3.81,2.72-6.22,4.34-1.6,1.08-3.01,1.96-3.58,2.12-.23-.07-2.3-2.37-2.54-2.66-.62-.73-1.85-3.03-2.61-3.18-.18-.04-.33.04-.44.28-.37.79-.58,2.34-.76,3.22-.46,2.34-.93,4.49-1.11,6.88-.78,10.03,2.94,21.24,3.23,31.87-.81.34-1.61.67-2.42,1.01-8,1.82-28.91,2.61-36.67-.67-.91-.39-1.78-.56-1.57-1.44,1.25-5.12,1.52-10.74,2.81-15.85,2.31-9.19,1.71-11.68,1.3-21-.11-1.17-.08-3.38-.72-3.79-.5-.33-3.96,3.63-4.97,4.49-4.12-1.55-8.47-4.84-11.53-8.03.53-.78,1.05-1.57,1.56-2.37,1.21-1.89,2.36-3.71,3.6-5.52,1.8-2.64,3.34-5.18,5.44-7.58,1.4-1.59,2.47-1.76,4.48-2.35,1.75-.51,4.38-1.27,6.89-2.12,2.19-.74,4.29-1.55,5.64-2.32.67-.38.58-.3,1.35-.27,1.15.04,2.29.06,3.43.06,2.15.01,4.3-.04,6.45-.04.94,0,3.89-.18,4.44.37Z"/>
      <path class="cls-7" d="m67.04,22.74c.28.28.56.56.84.84,2.7,1.2,5.52,1.93,8.32,2.8,2.22.69,3.83,1.11,5.24,1.96,1.09.65,2.07,1.56,3.12,3.04,1.72,2.32,3.09,4.32,4.6,6.78.6.93,1.19,1.87,1.79,2.81,1.36,1.72,1.9,2.48,2.88,4.44-.75.62-1.51,1.25-2.26,1.87-.98.66-3.81,2.72-6.22,4.34-1.6,1.08-3.01,1.96-3.58,2.12-.23-.07-2.3-2.37-2.54-2.66-.62-.73-1.85-3.03-2.61-3.18-.18-.04-.33.04-.44.28-.37.79-.58,2.34-.76,3.22-.46,2.34-.93,4.49-1.11,6.88-.78,10.03,2.94,21.24,3.23,31.87-.81.34-1.61.67-2.42,1.01-8,1.82-28.91,2.61-36.67-.67-.91-.39-1.78-.56-1.57-1.44,1.25-5.12,1.52-10.74,2.81-15.85,2.31-9.19,1.71-11.68,1.3-21-.11-1.17-.08-3.38-.72-3.79-.5-.33-3.96,3.63-4.97,4.49-4.12-1.55-8.47-4.84-11.53-8.03.53-.78,1.05-1.57,1.56-2.37,1.21-1.89,2.36-3.71,3.6-5.52,1.8-2.64,3.34-5.18,5.44-7.58,1.4-1.59,2.47-1.76,4.48-2.35,1.75-.51,4.38-1.27,6.89-2.12,2.19-.74,4.29-1.55,5.64-2.32.67-.38.58-.3,1.35-.27,1.15.04,2.29.06,3.43.06,2.15.01,4.3-.04,6.45-.04.94,0,3.89-.18,4.44.37Z"/>
      <path class="cls-32" d="m66.89,22.59c.28.28.56.56.84.84,2.7,1.2,5.52,1.93,8.32,2.8,2.22.69,3.83,1.11,5.24,1.96,1.09.65,2.07,1.56,3.12,3.04,1.72,2.32,3.09,4.32,4.6,6.78.6.93,1.19,1.87,1.79,2.81,1.36,1.72,1.9,2.48,2.88,4.44-.75.62-1.51,1.25-2.26,1.87-.98.66-3.81,2.72-6.22,4.34-1.6,1.08-3.01,1.96-3.58,2.12-.23-.07-2.3-2.37-2.54-2.66-.62-.73-1.85-3.03-2.61-3.18-.18-.04-.33.04-.44.28-.37.79-.58,2.34-.76,3.22-.46,2.34-.93,4.49-1.11,6.88-.78,10.03,2.94,21.24,3.23,31.87-.81.34-1.61.67-2.42,1.01-8,1.82-28.91,2.61-36.67-.67-.91-.39-1.78-.56-1.57-1.44,1.25-5.12,1.52-10.74,2.81-15.85,2.31-9.19,1.71-11.68,1.3-21-.11-1.17-.08-3.38-.72-3.79-.5-.33-3.96,3.63-4.97,4.49-4.12-1.55-8.47-4.84-11.53-8.03.53-.78,1.05-1.57,1.56-2.37,1.21-1.89,2.36-3.71,3.6-5.52,1.8-2.64,3.34-5.18,5.44-7.58,1.4-1.59,2.47-1.76,4.48-2.35,1.75-.51,4.38-1.27,6.89-2.12,2.19-.74,4.29-1.55,5.64-2.32.67-.38.58-.3,1.35-.27,1.15.04,2.29.06,3.43.06,2.15.01,4.3-.04,6.45-.04.94,0,3.89-.18,4.44.37Z"/>
      <path class="cls-58" d="m66.74,22.44c.28.28.56.56.84.84,2.7,1.2,5.52,1.93,8.32,2.8,2.22.69,3.83,1.11,5.24,1.96,1.09.65,2.07,1.56,3.12,3.04,1.72,2.32,3.09,4.32,4.6,6.78.6.93,1.19,1.87,1.79,2.81,1.36,1.72,1.9,2.48,2.88,4.44-.75.62-1.51,1.25-2.26,1.87-.98.66-3.81,2.72-6.22,4.34-1.6,1.08-3.01,1.96-3.58,2.12-.23-.07-2.3-2.37-2.54-2.66-.62-.73-1.85-3.03-2.61-3.18-.18-.04-.33.04-.44.28-.37.79-.58,2.34-.76,3.22-.46,2.34-.93,4.49-1.11,6.88-.78,10.03,2.94,21.24,3.23,31.87-.81.34-1.61.67-2.42,1.01-8,1.82-28.91,2.61-36.67-.67-.91-.39-1.78-.56-1.57-1.44,1.25-5.12,1.52-10.74,2.81-15.85,2.31-9.19,1.71-11.68,1.3-21-.11-1.17-.08-3.38-.72-3.79-.5-.33-3.96,3.63-4.97,4.49-4.12-1.55-8.47-4.84-11.53-8.03.53-.78,1.05-1.57,1.56-2.37,1.21-1.89,2.36-3.71,3.6-5.52,1.8-2.64,3.34-5.18,5.44-7.58,1.4-1.59,2.47-1.76,4.48-2.35,1.75-.51,4.38-1.27,6.89-2.12,2.19-.74,4.29-1.55,5.64-2.32.67-.38.58-.3,1.35-.27,1.15.04,2.29.06,3.43.06,2.15.01,4.3-.04,6.45-.04.94,0,3.89-.18,4.44.37Z"/>
      <path class="cls-39" d="m66.59,22.29c.28.28.56.56.84.84,2.7,1.2,5.52,1.93,8.32,2.8,2.22.69,3.83,1.11,5.24,1.96,1.09.65,2.07,1.56,3.12,3.04,1.72,2.32,3.09,4.32,4.6,6.78.6.93,1.19,1.87,1.79,2.81,1.36,1.72,1.9,2.48,2.88,4.44-.75.62-1.51,1.25-2.26,1.87-.98.66-3.81,2.72-6.22,4.34-1.6,1.08-3.01,1.96-3.58,2.12-.23-.07-2.3-2.37-2.54-2.66-.62-.73-1.85-3.03-2.61-3.18-.18-.04-.33.04-.44.28-.37.79-.58,2.34-.76,3.22-.46,2.34-.93,4.49-1.11,6.88-.78,10.03,2.94,21.24,3.23,31.87-.81.34-1.61.67-2.42,1.01-8,1.82-28.91,2.61-36.67-.67-.91-.39-1.78-.56-1.57-1.44,1.25-5.12,1.52-10.74,2.81-15.85,2.31-9.19,1.71-11.68,1.3-21-.11-1.17-.08-3.38-.72-3.79-.5-.33-3.96,3.63-4.97,4.49-4.12-1.55-8.47-4.84-11.53-8.03.53-.78,1.05-1.57,1.56-2.37,1.21-1.89,2.36-3.71,3.6-5.52,1.8-2.64,3.34-5.18,5.44-7.58,1.4-1.59,2.47-1.76,4.48-2.35,1.75-.51,4.38-1.27,6.89-2.12,2.19-.74,4.29-1.55,5.64-2.32.67-.38.58-.3,1.35-.27,1.15.04,2.29.06,3.43.06,2.15.01,4.3-.04,6.45-.04.94,0,3.89-.18,4.44.37Z"/>
      <path class="cls-42" d="m66.45,22.15c.28.28.56.56.84.84,2.7,1.2,5.52,1.93,8.32,2.8,2.22.69,3.83,1.11,5.24,1.96,1.09.65,2.07,1.56,3.12,3.04,1.72,2.32,3.09,4.32,4.6,6.78.6.93,1.19,1.87,1.79,2.81,1.36,1.72,1.9,2.48,2.88,4.44-.75.62-1.51,1.25-2.26,1.87-.98.66-3.81,2.72-6.22,4.34-1.6,1.08-3.01,1.96-3.58,2.12-.23-.07-2.3-2.37-2.54-2.66-.62-.73-1.85-3.03-2.61-3.18-.18-.04-.33.04-.44.28-.37.79-.58,2.34-.76,3.22-.46,2.34-.93,4.49-1.11,6.88-.78,10.03,2.94,21.24,3.23,31.87-.81.34-1.61.67-2.42,1.01-8,1.82-28.91,2.61-36.67-.67-.91-.39-1.78-.56-1.57-1.44,1.25-5.12,1.52-10.74,2.81-15.85,2.31-9.19,1.71-11.68,1.3-21-.11-1.17-.08-3.38-.72-3.79-.5-.33-3.96,3.63-4.97,4.49-4.12-1.55-8.47-4.84-11.53-8.03.53-.78,1.05-1.57,1.56-2.37,1.21-1.89,2.36-3.71,3.6-5.52,1.8-2.64,3.34-5.18,5.44-7.58,1.4-1.59,2.47-1.76,4.48-2.35,1.75-.51,4.38-1.27,6.89-2.12,2.19-.74,4.29-1.55,5.64-2.32.67-.38.58-.3,1.35-.27,1.15.04,2.29.06,3.43.06,2.15.01,4.3-.04,6.45-.04.94,0,3.89-.18,4.44.37Z"/>
      <path class="cls-52" d="m66.3,22c.28.28.56.56.84.84,2.7,1.2,5.52,1.93,8.32,2.8,2.22.69,3.83,1.11,5.24,1.96,1.09.65,2.07,1.56,3.12,3.04,1.72,2.32,3.09,4.32,4.6,6.78.6.93,1.19,1.87,1.79,2.81,1.36,1.72,1.9,2.48,2.88,4.44-.75.62-1.51,1.25-2.26,1.87-.98.66-3.81,2.72-6.22,4.34-1.6,1.08-3.01,1.96-3.58,2.12-.23-.07-2.3-2.37-2.54-2.66-.62-.73-1.85-3.03-2.61-3.18-.18-.04-.33.04-.44.28-.37.79-.58,2.34-.76,3.22-.46,2.34-.93,4.49-1.11,6.88-.78,10.03,2.94,21.24,3.23,31.87-.81.34-1.61.67-2.42,1.01-8,1.82-28.91,2.61-36.67-.67-.91-.39-1.78-.56-1.57-1.44,1.25-5.12,1.52-10.74,2.81-15.85,2.31-9.19,1.71-11.68,1.3-21-.11-1.17-.08-3.38-.72-3.79-.5-.33-3.96,3.63-4.97,4.49-4.12-1.55-8.47-4.84-11.53-8.03.53-.78,1.05-1.57,1.56-2.37,1.21-1.89,2.36-3.71,3.6-5.52,1.8-2.64,3.34-5.18,5.44-7.58,1.4-1.59,2.47-1.76,4.48-2.35,1.75-.51,4.38-1.27,6.89-2.12,2.19-.74,4.29-1.55,5.64-2.32.67-.38.58-.3,1.35-.27,1.15.04,2.29.06,3.43.06,2.15.01,4.3-.04,6.45-.04.94,0,3.89-.18,4.44.37Z"/>
      <path class="cls-47" d="m66.15,21.85c.28.28.56.56.84.84,2.7,1.2,5.52,1.93,8.32,2.8,2.22.69,3.83,1.11,5.24,1.96,1.09.65,2.07,1.56,3.12,3.04,1.72,2.32,3.09,4.32,4.6,6.78.6.93,1.19,1.87,1.79,2.81,1.36,1.72,1.9,2.48,2.88,4.44-.75.62-1.51,1.25-2.26,1.87-.98.66-3.81,2.72-6.22,4.34-1.6,1.08-3.01,1.96-3.58,2.12-.23-.07-2.3-2.37-2.54-2.66-.62-.73-1.85-3.03-2.61-3.18-.18-.04-.33.04-.44.28-.37.79-.58,2.34-.76,3.22-.46,2.34-.93,4.49-1.11,6.88-.78,10.03,2.94,21.24,3.23,31.87-.81.34-1.61.67-2.42,1.01-8,1.82-28.91,2.61-36.67-.67-.91-.39-1.78-.56-1.57-1.44,1.25-5.12,1.52-10.74,2.81-15.85,2.31-9.19,1.71-11.68,1.3-21-.11-1.17-.08-3.38-.72-3.79-.5-.33-3.96,3.63-4.97,4.49-4.12-1.55-8.47-4.84-11.53-8.03.53-.78,1.05-1.57,1.56-2.37,1.21-1.89,2.36-3.71,3.6-5.52,1.8-2.64,3.34-5.18,5.44-7.58,1.4-1.59,2.47-1.76,4.48-2.35,1.75-.51,4.38-1.27,6.89-2.12,2.19-.74,4.29-1.55,5.64-2.32.67-.38.58-.3,1.35-.27,1.15.04,2.29.06,3.43.06,2.15.01,4.3-.04,6.45-.04.94,0,3.89-.18,4.44.37Z"/>
      <path class="cls-2" d="m66,21.7c.28.28.56.56.84.84,2.7,1.2,5.52,1.93,8.32,2.8,2.22.69,3.83,1.11,5.24,1.96,1.09.65,2.07,1.56,3.12,3.04,1.72,2.32,3.09,4.32,4.6,6.78.6.93,1.19,1.87,1.79,2.81,1.36,1.72,1.9,2.48,2.88,4.44-.75.62-1.51,1.25-2.26,1.87-.98.66-3.81,2.72-6.22,4.34-1.6,1.08-3.01,1.96-3.58,2.12-.23-.07-2.3-2.37-2.54-2.66-.62-.73-1.85-3.03-2.61-3.18-.18-.04-.33.04-.44.28-.37.79-.58,2.34-.76,3.22-.46,2.34-.93,4.49-1.11,6.88-.78,10.03,2.94,21.24,3.23,31.87-.81.34-1.61.67-2.42,1.01-8,1.82-28.91,2.61-36.67-.67-.91-.39-1.78-.56-1.57-1.44,1.25-5.12,1.52-10.74,2.81-15.85,2.31-9.19,1.71-11.68,1.3-21-.11-1.17-.08-3.38-.72-3.79-.5-.33-3.96,3.63-4.97,4.49-4.12-1.55-8.47-4.84-11.53-8.03.53-.78,1.05-1.57,1.56-2.37,1.21-1.89,2.36-3.71,3.6-5.52,1.8-2.64,3.34-5.18,5.44-7.58,1.4-1.59,2.47-1.76,4.48-2.35,1.75-.51,4.38-1.27,6.89-2.12,2.19-.74,4.29-1.55,5.64-2.32.67-.38.58-.3,1.35-.27,1.15.04,2.29.06,3.43.06,2.15.01,4.3-.04,6.45-.04.94,0,3.89-.18,4.44.37Z"/>
      <path class="cls-57" d="m65.85,21.55c.28.28.56.56.84.84,2.7,1.2,5.52,1.93,8.32,2.8,2.22.69,3.83,1.11,5.24,1.96,1.09.65,2.07,1.56,3.12,3.04,1.72,2.32,3.09,4.32,4.6,6.78.6.93,1.19,1.87,1.79,2.81,1.36,1.72,1.9,2.48,2.88,4.44-.75.62-1.51,1.25-2.26,1.87-.98.66-3.81,2.72-6.22,4.34-1.6,1.08-3.01,1.96-3.58,2.12-.23-.07-2.3-2.37-2.54-2.66-.62-.73-1.85-3.03-2.61-3.18-.18-.04-.33.04-.44.28-.37.79-.58,2.34-.76,3.22-.46,2.34-.93,4.49-1.11,6.88-.78,10.03,2.94,21.24,3.23,31.87-.81.34-1.61.67-2.42,1.01-8,1.82-28.91,2.61-36.67-.67-.91-.39-1.78-.56-1.57-1.44,1.25-5.12,1.52-10.74,2.81-15.85,2.31-9.19,1.71-11.68,1.3-21-.11-1.17-.08-3.38-.72-3.79-.5-.33-3.96,3.63-4.97,4.49-4.12-1.55-8.47-4.84-11.53-8.03.53-.78,1.05-1.57,1.56-2.37,1.21-1.89,2.36-3.71,3.6-5.52,1.8-2.64,3.34-5.18,5.44-7.58,1.4-1.59,2.47-1.76,4.48-2.35,1.75-.51,4.38-1.27,6.89-2.12,2.19-.74,4.29-1.55,5.64-2.32.67-.38.58-.3,1.35-.27,1.15.04,2.29.06,3.43.06,2.15.01,4.3-.04,6.45-.04.94,0,3.89-.18,4.44.37Z"/>
      <path class="cls-34" d="m65.7,21.4c.28.28.56.56.84.84,2.7,1.2,5.52,1.93,8.32,2.8,2.22.69,3.83,1.11,5.24,1.96,1.09.65,2.07,1.56,3.12,3.04,1.72,2.32,3.09,4.32,4.6,6.78.6.93,1.19,1.87,1.79,2.81,1.36,1.72,1.9,2.48,2.88,4.44-.75.62-1.51,1.25-2.26,1.87-.98.66-3.81,2.72-6.22,4.34-1.6,1.08-3.01,1.96-3.58,2.12-.23-.07-2.3-2.37-2.54-2.66-.62-.73-1.85-3.03-2.61-3.18-.18-.04-.33.04-.44.28-.37.79-.58,2.34-.76,3.22-.46,2.34-.93,4.49-1.11,6.88-.78,10.03,2.94,21.24,3.23,31.87-.81.34-1.61.67-2.42,1.01-8,1.82-28.91,2.61-36.67-.67-.91-.39-1.78-.56-1.57-1.44,1.25-5.12,1.52-10.74,2.81-15.85,2.31-9.19,1.71-11.68,1.3-21-.11-1.17-.08-3.38-.72-3.79-.5-.33-3.96,3.63-4.97,4.49-4.12-1.55-8.47-4.84-11.53-8.03.53-.78,1.05-1.57,1.56-2.37,1.21-1.89,2.36-3.71,3.6-5.52,1.8-2.64,3.34-5.18,5.44-7.58,1.4-1.59,2.47-1.76,4.48-2.35,1.75-.51,4.38-1.27,6.89-2.12,2.19-.74,4.29-1.55,5.64-2.32.67-.38.58-.3,1.35-.27,1.15.04,2.29.06,3.43.06,2.15.01,4.3-.04,6.45-.04.94,0,3.89-.18,4.44.37Z"/>
      <path class="cls-54" d="m65.55,21.25c.28.28.56.56.84.84,2.7,1.2,5.52,1.93,8.32,2.8,2.22.69,3.83,1.11,5.24,1.96,1.09.65,2.07,1.56,3.12,3.04,1.72,2.32,3.09,4.32,4.6,6.78.6.93,1.19,1.87,1.79,2.81,1.36,1.72,1.9,2.48,2.88,4.44-.75.62-1.51,1.25-2.26,1.87-.98.66-3.81,2.72-6.22,4.34-1.6,1.08-3.01,1.96-3.58,2.12-.23-.07-2.3-2.37-2.54-2.66-.62-.73-1.85-3.03-2.61-3.18-.18-.04-.33.04-.44.28-.37.79-.58,2.34-.76,3.22-.46,2.34-.93,4.49-1.11,6.88-.78,10.03,2.94,21.24,3.23,31.87-.81.34-1.61.67-2.42,1.01-8,1.82-28.91,2.61-36.67-.67-.91-.39-1.78-.56-1.57-1.44,1.25-5.12,1.52-10.74,2.81-15.85,2.31-9.19,1.71-11.68,1.3-21-.11-1.17-.08-3.38-.72-3.79-.5-.33-3.96,3.63-4.97,4.49-4.12-1.55-8.47-4.84-11.53-8.03.53-.78,1.05-1.57,1.56-2.37,1.21-1.89,2.36-3.71,3.6-5.52,1.8-2.64,3.34-5.18,5.44-7.58,1.4-1.59,2.47-1.76,4.48-2.35,1.75-.51,4.38-1.27,6.89-2.12,2.19-.74,4.29-1.55,5.64-2.32.67-.38.58-.3,1.35-.27,1.15.04,2.29.06,3.43.06,2.15.01,4.3-.04,6.45-.04.94,0,3.89-.18,4.44.37Z"/>
      <path class="cls-24" d="m65.4,21.1c.28.28.56.56.84.84,2.7,1.2,5.52,1.93,8.32,2.8,2.22.69,3.83,1.11,5.24,1.96,1.09.65,2.07,1.56,3.12,3.04,1.72,2.32,3.09,4.32,4.6,6.78.6.93,1.19,1.87,1.79,2.81,1.36,1.72,1.9,2.48,2.88,4.44-.75.62-1.51,1.25-2.26,1.87-.98.66-3.81,2.72-6.22,4.34-1.6,1.08-3.01,1.96-3.58,2.12-.23-.07-2.3-2.37-2.54-2.66-.62-.73-1.85-3.03-2.61-3.18-.18-.04-.33.04-.44.28-.37.79-.58,2.34-.76,3.22-.46,2.34-.93,4.49-1.11,6.88-.78,10.03,2.94,21.24,3.23,31.87-.81.34-1.61.67-2.42,1.01-8,1.82-28.91,2.61-36.67-.67-.91-.39-1.78-.56-1.57-1.44,1.25-5.12,1.52-10.74,2.81-15.85,2.31-9.19,1.71-11.68,1.3-21-.11-1.17-.08-3.38-.72-3.79-.5-.33-3.96,3.63-4.97,4.49-4.12-1.55-8.47-4.84-11.53-8.03.53-.78,1.05-1.57,1.56-2.37,1.21-1.89,2.36-3.71,3.6-5.52,1.8-2.64,3.34-5.18,5.44-7.58,1.4-1.59,2.47-1.76,4.48-2.35,1.75-.51,4.38-1.27,6.89-2.12,2.19-.74,4.29-1.55,5.64-2.32.67-.38.58-.3,1.35-.27,1.15.04,2.29.06,3.43.06,2.15.01,4.3-.04,6.45-.04.94,0,3.89-.18,4.44.37Z"/>
      <path class="cls-56" d="m65.25,20.95c.28.28.56.56.84.84,2.7,1.2,5.52,1.93,8.32,2.8,2.22.69,3.83,1.11,5.24,1.96,1.09.65,2.07,1.56,3.12,3.04,1.72,2.32,3.09,4.32,4.6,6.78.6.93,1.19,1.87,1.79,2.81,1.36,1.72,1.9,2.48,2.88,4.44-.75.62-1.51,1.25-2.26,1.87-.98.66-3.81,2.72-6.22,4.34-1.6,1.08-3.01,1.96-3.58,2.12-.23-.07-2.3-2.37-2.54-2.66-.62-.73-1.85-3.03-2.61-3.18-.18-.04-.33.04-.44.28-.37.79-.58,2.34-.76,3.22-.46,2.34-.93,4.49-1.11,6.88-.78,10.03,2.94,21.24,3.23,31.87-.81.34-1.61.67-2.42,1.01-8,1.82-28.91,2.61-36.67-.67-.91-.39-1.78-.56-1.57-1.44,1.25-5.12,1.52-10.74,2.81-15.85,2.31-9.19,1.71-11.68,1.3-21-.11-1.17-.08-3.38-.72-3.79-.5-.33-3.96,3.63-4.97,4.49-4.12-1.55-8.47-4.84-11.53-8.03.53-.78,1.05-1.57,1.56-2.37,1.21-1.89,2.36-3.71,3.6-5.52,1.8-2.64,3.34-5.18,5.44-7.58,1.4-1.59,2.47-1.76,4.48-2.35,1.75-.51,4.38-1.27,6.89-2.12,2.19-.74,4.29-1.55,5.64-2.32.67-.38.58-.3,1.35-.27,1.15.04,2.29.06,3.43.06,2.15.01,4.3-.04,6.45-.04.94,0,3.89-.18,4.44.37Z"/>
      <path class="cls-40" d="m65.1,20.8c.28.28.56.56.84.84,2.7,1.2,5.52,1.93,8.32,2.8,2.22.69,3.83,1.11,5.24,1.96,1.09.65,2.07,1.56,3.12,3.04,1.72,2.32,3.09,4.32,4.6,6.78.6.93,1.19,1.87,1.79,2.81,1.36,1.72,1.9,2.48,2.88,4.44-.75.62-1.51,1.25-2.26,1.87-.98.66-3.81,2.72-6.22,4.34-1.6,1.08-3.01,1.96-3.58,2.12-.23-.07-2.3-2.37-2.54-2.66-.62-.73-1.85-3.03-2.61-3.18-.18-.04-.33.04-.44.28-.37.79-.58,2.34-.76,3.22-.46,2.34-.93,4.49-1.11,6.88-.78,10.03,2.94,21.24,3.23,31.87-.81.34-1.61.67-2.42,1.01-8,1.82-28.91,2.61-36.67-.67-.91-.39-1.78-.56-1.57-1.44,1.25-5.12,1.52-10.74,2.81-15.85,2.31-9.19,1.71-11.68,1.3-21-.11-1.17-.08-3.38-.72-3.79-.5-.33-3.96,3.63-4.97,4.49-4.12-1.55-8.47-4.84-11.53-8.03.53-.78,1.05-1.57,1.56-2.37,1.21-1.89,2.36-3.71,3.6-5.52,1.8-2.64,3.34-5.18,5.44-7.58,1.4-1.59,2.47-1.76,4.48-2.35,1.75-.51,4.38-1.27,6.89-2.12,2.19-.74,4.29-1.55,5.64-2.32.67-.38.58-.3,1.35-.27,1.15.04,2.29.06,3.43.06,2.15.01,4.3-.04,6.45-.04.94,0,3.89-.18,4.44.37Z"/>
      <path class="cls-20" d="m64.95,20.65c.28.28.56.56.84.84,2.7,1.2,5.52,1.93,8.32,2.8,2.22.69,3.83,1.11,5.24,1.96,1.09.65,2.07,1.56,3.12,3.04,1.72,2.32,3.09,4.32,4.6,6.78.6.93,1.19,1.87,1.79,2.81,1.36,1.72,1.9,2.48,2.88,4.44-.75.62-1.51,1.25-2.26,1.87-.98.66-3.81,2.72-6.22,4.34-1.6,1.08-3.01,1.96-3.58,2.12-.23-.07-2.3-2.37-2.54-2.66-.62-.73-1.85-3.03-2.61-3.18-.18-.04-.33.04-.44.28-.37.79-.58,2.34-.76,3.22-.46,2.34-.93,4.49-1.11,6.88-.78,10.03,2.94,21.24,3.23,31.87-.81.34-1.61.67-2.42,1.01-8,1.82-28.91,2.61-36.67-.67-.91-.39-1.78-.56-1.57-1.44,1.25-5.12,1.52-10.74,2.81-15.85,2.31-9.19,1.71-11.68,1.3-21-.11-1.17-.08-3.38-.72-3.79-.5-.33-3.96,3.63-4.97,4.49-4.12-1.55-8.47-4.84-11.53-8.03.53-.78,1.05-1.57,1.56-2.37,1.21-1.89,2.36-3.71,3.6-5.52,1.8-2.64,3.34-5.18,5.44-7.58,1.4-1.59,2.47-1.76,4.48-2.35,1.75-.51,4.38-1.27,6.89-2.12,2.19-.74,4.29-1.55,5.64-2.32.67-.38.58-.3,1.35-.27,1.15.04,2.29.06,3.43.06,2.15.01,4.3-.04,6.45-.04.94,0,3.89-.18,4.44.37Z"/>
      <path class="cls-41" d="m64.8,20.5c.28.28.56.56.84.84,2.7,1.2,5.52,1.93,8.32,2.8,2.22.69,3.83,1.11,5.24,1.96,1.09.65,2.07,1.56,3.12,3.04,1.72,2.32,3.09,4.32,4.6,6.78.6.93,1.19,1.87,1.79,2.81,1.36,1.72,1.9,2.48,2.88,4.44-.75.62-1.51,1.25-2.26,1.87-.98.66-3.81,2.72-6.22,4.34-1.6,1.08-3.01,1.96-3.58,2.12-.23-.07-2.3-2.37-2.54-2.66-.62-.73-1.85-3.03-2.61-3.18-.18-.04-.33.04-.44.28-.37.79-.58,2.34-.76,3.22-.46,2.34-.93,4.49-1.11,6.88-.78,10.03,2.94,21.24,3.23,31.87-.81.34-1.61.67-2.42,1.01-8,1.82-28.91,2.61-36.67-.67-.91-.39-1.78-.56-1.57-1.44,1.25-5.12,1.52-10.74,2.81-15.85,2.31-9.19,1.71-11.68,1.3-21-.11-1.17-.08-3.38-.72-3.79-.5-.33-3.96,3.63-4.97,4.49-4.12-1.55-8.47-4.84-11.53-8.03.53-.78,1.05-1.57,1.56-2.37,1.21-1.89,2.36-3.71,3.6-5.52,1.8-2.64,3.34-5.18,5.44-7.58,1.4-1.59,2.47-1.76,4.48-2.35,1.75-.51,4.38-1.27,6.89-2.12,2.19-.74,4.29-1.55,5.64-2.32.67-.38.58-.3,1.35-.27,1.15.04,2.29.06,3.43.06,2.15.01,4.3-.04,6.45-.04.94,0,3.89-.18,4.44.37Z"/>
      <path class="cls-50" d="m64.65,20.35c.28.28.56.56.84.84,2.7,1.2,5.52,1.93,8.32,2.8,2.22.69,3.83,1.11,5.24,1.96,1.09.65,2.07,1.56,3.12,3.04,1.72,2.32,3.09,4.32,4.6,6.78.6.93,1.19,1.87,1.79,2.81,1.36,1.72,1.9,2.48,2.88,4.44-.75.62-1.51,1.25-2.26,1.87-.98.66-3.81,2.72-6.22,4.34-1.6,1.08-3.01,1.96-3.58,2.12-.23-.07-2.3-2.37-2.54-2.66-.62-.73-1.85-3.03-2.61-3.18-.18-.04-.33.04-.44.28-.37.79-.58,2.34-.76,3.22-.46,2.34-.93,4.49-1.11,6.88-.78,10.03,2.94,21.24,3.23,31.87-.81.34-1.61.67-2.42,1.01-8,1.82-28.91,2.61-36.67-.67-.91-.39-1.78-.56-1.57-1.44,1.25-5.12,1.52-10.74,2.81-15.85,2.31-9.19,1.71-11.68,1.3-21-.11-1.17-.08-3.38-.72-3.79-.5-.33-3.96,3.63-4.97,4.49-4.12-1.55-8.47-4.84-11.53-8.03.53-.78,1.05-1.57,1.56-2.37,1.21-1.89,2.36-3.71,3.6-5.52,1.8-2.64,3.34-5.18,5.44-7.58,1.4-1.59,2.47-1.76,4.48-2.35,1.75-.51,4.38-1.27,6.89-2.12,2.19-.74,4.29-1.55,5.64-2.32.67-.38.58-.3,1.35-.27,1.15.04,2.29.06,3.43.06,2.15.01,4.3-.04,6.45-.04.94,0,3.89-.18,4.44.37Z"/>
      <path class="cls-62" d="m64.5,20.2c.28.28.56.56.84.84,2.7,1.2,5.52,1.93,8.32,2.8,2.22.69,3.83,1.11,5.24,1.96,1.09.65,2.07,1.56,3.12,3.04,1.72,2.32,3.09,4.32,4.6,6.78.6.93,1.19,1.87,1.79,2.81,1.36,1.72,1.9,2.48,2.88,4.44-.75.62-1.51,1.25-2.26,1.87-.98.66-3.81,2.72-6.22,4.34-1.6,1.08-3.01,1.96-3.58,2.12-.23-.07-2.3-2.37-2.54-2.66-.62-.73-1.85-3.03-2.61-3.18-.18-.04-.33.04-.44.28-.37.79-.58,2.34-.76,3.22-.46,2.34-.93,4.49-1.11,6.88-.78,10.03,2.94,21.24,3.23,31.87-.81.34-1.61.67-2.42,1.01-8,1.82-28.91,2.61-36.67-.67-.91-.39-1.78-.56-1.57-1.44,1.25-5.12,1.52-10.74,2.81-15.85,2.31-9.19,1.71-11.68,1.3-21-.11-1.17-.08-3.38-.72-3.79-.5-.33-3.96,3.63-4.97,4.49-4.12-1.55-8.47-4.84-11.53-8.03.53-.78,1.05-1.57,1.56-2.37,1.21-1.89,2.36-3.71,3.6-5.52,1.8-2.64,3.34-5.18,5.44-7.58,1.4-1.59,2.47-1.76,4.48-2.35,1.75-.51,4.38-1.27,6.89-2.12,2.19-.74,4.29-1.55,5.64-2.32.67-.38.58-.3,1.35-.27,1.15.04,2.29.06,3.43.06,2.15.01,4.3-.04,6.45-.04.94,0,3.89-.18,4.44.37Z"/>
      <path class="cls-55" d="m64.35,20.05c.28.28.56.56.84.84,2.7,1.2,5.52,1.93,8.32,2.8,2.22.69,3.83,1.11,5.24,1.96,1.09.65,2.07,1.56,3.12,3.04,1.72,2.32,3.09,4.32,4.6,6.78.6.93,1.19,1.87,1.79,2.81,1.36,1.72,1.9,2.48,2.88,4.44-.75.62-1.51,1.25-2.26,1.87-.98.66-3.81,2.72-6.22,4.34-1.6,1.08-3.01,1.96-3.58,2.12-.23-.07-2.3-2.37-2.54-2.66-.62-.73-1.85-3.03-2.61-3.18-.18-.04-.33.04-.44.28-.37.79-.58,2.34-.76,3.22-.46,2.34-.93,4.49-1.11,6.88-.78,10.03,2.94,21.24,3.23,31.87-.81.34-1.61.67-2.42,1.01-8,1.82-28.91,2.61-36.67-.67-.91-.39-1.78-.56-1.57-1.44,1.25-5.12,1.52-10.74,2.81-15.85,2.31-9.19,1.71-11.68,1.3-21-.11-1.17-.08-3.38-.72-3.79-.5-.33-3.96,3.63-4.97,4.49-4.12-1.55-8.47-4.84-11.53-8.03.53-.78,1.05-1.57,1.56-2.37,1.21-1.89,2.36-3.71,3.6-5.52,1.8-2.64,3.34-5.18,5.44-7.58,1.4-1.59,2.47-1.76,4.48-2.35,1.75-.51,4.38-1.27,6.89-2.12,2.19-.74,4.29-1.55,5.64-2.32.67-.38.58-.3,1.35-.27,1.15.04,2.29.06,3.43.06,2.15.01,4.3-.04,6.45-.04.94,0,3.89-.18,4.44.37Z"/>
      <path class="cls-45" d="m64.2,19.91c.28.28.56.56.84.84,2.7,1.2,5.52,1.93,8.32,2.8,2.22.69,3.83,1.11,5.24,1.96,1.09.65,2.07,1.56,3.12,3.04,1.72,2.32,3.09,4.32,4.6,6.78.6.93,1.19,1.87,1.79,2.81,1.36,1.72,1.9,2.48,2.88,4.44-.75.62-1.51,1.25-2.26,1.87-.98.66-3.81,2.72-6.22,4.34-1.6,1.08-3.01,1.96-3.58,2.12-.23-.07-2.3-2.37-2.54-2.66-.62-.73-1.85-3.03-2.61-3.18-.18-.04-.33.04-.44.28-.37.79-.58,2.34-.76,3.22-.46,2.34-.93,4.49-1.11,6.88-.78,10.03,2.94,21.24,3.23,31.87-.81.34-1.61.67-2.42,1.01-8,1.82-28.91,2.61-36.67-.67-.91-.39-1.78-.56-1.57-1.44,1.25-5.12,1.52-10.74,2.81-15.85,2.31-9.19,1.71-11.68,1.3-21-.11-1.17-.08-3.38-.72-3.79-.5-.33-3.96,3.63-4.97,4.49-4.12-1.55-8.47-4.84-11.53-8.03.53-.78,1.05-1.57,1.56-2.37,1.21-1.89,2.36-3.71,3.6-5.52,1.8-2.64,3.34-5.18,5.44-7.58,1.4-1.59,2.47-1.76,4.48-2.35,1.75-.51,4.38-1.27,6.89-2.12,2.19-.74,4.29-1.55,5.64-2.32.67-.38.58-.3,1.35-.27,1.15.04,2.29.06,3.43.06,2.15.01,4.3-.04,6.45-.04.94,0,3.89-.18,4.44.37Z"/>
      <path class="cls-35" d="m64.06,19.76c.28.28.56.56.84.84,2.7,1.2,5.52,1.93,8.32,2.8,2.22.69,3.83,1.11,5.24,1.96,1.09.65,2.07,1.56,3.12,3.04,1.72,2.32,3.09,4.32,4.6,6.78.6.93,1.19,1.87,1.79,2.81,1.36,1.72,1.9,2.48,2.88,4.44-.75.62-1.51,1.25-2.26,1.87-.98.66-3.81,2.72-6.22,4.34-1.6,1.08-3.01,1.96-3.58,2.12-.23-.07-2.3-2.37-2.54-2.66-.62-.73-1.85-3.03-2.61-3.18-.18-.04-.33.04-.44.28-.37.79-.58,2.34-.76,3.22-.46,2.34-.93,4.49-1.11,6.88-.78,10.03,2.94,21.24,3.23,31.87-.81.34-1.61.67-2.42,1.01-8,1.82-28.91,2.61-36.67-.67-.91-.39-1.78-.56-1.57-1.44,1.25-5.12,1.52-10.74,2.81-15.85,2.31-9.19,1.71-11.68,1.3-21-.11-1.17-.08-3.38-.72-3.79-.5-.33-3.96,3.63-4.97,4.49-4.12-1.55-8.47-4.84-11.53-8.03.53-.78,1.05-1.57,1.56-2.37,1.21-1.89,2.36-3.71,3.6-5.52,1.8-2.64,3.34-5.18,5.44-7.58,1.4-1.59,2.47-1.76,4.48-2.35,1.75-.51,4.38-1.27,6.89-2.12,2.19-.74,4.29-1.55,5.64-2.32.67-.38.58-.3,1.35-.27,1.15.04,2.29.06,3.43.06,2.15.01,4.3-.04,6.45-.04.94,0,3.89-.18,4.44.37Z"/>
      <path class="cls-14" d="m63.91,19.61c.28.28.56.56.84.84,2.7,1.2,5.52,1.93,8.32,2.8,2.22.69,3.83,1.11,5.24,1.96,1.09.65,2.07,1.56,3.12,3.04,1.72,2.32,3.09,4.32,4.6,6.78.6.93,1.19,1.87,1.79,2.81,1.36,1.72,1.9,2.48,2.88,4.44-.75.62-1.51,1.25-2.26,1.87-.98.66-3.81,2.72-6.22,4.34-1.6,1.08-3.01,1.96-3.58,2.12-.23-.07-2.3-2.37-2.54-2.66-.62-.73-1.85-3.03-2.61-3.18-.18-.04-.33.04-.44.28-.37.79-.58,2.34-.76,3.22-.46,2.34-.93,4.49-1.11,6.88-.78,10.03,2.94,21.24,3.23,31.87-.81.34-1.61.67-2.42,1.01-8,1.82-28.91,2.61-36.67-.67-.91-.39-1.78-.56-1.57-1.44,1.25-5.12,1.52-10.74,2.81-15.85,2.31-9.19,1.71-11.68,1.3-21-.11-1.17-.08-3.38-.72-3.79-.5-.33-3.96,3.63-4.97,4.49-4.12-1.55-8.47-4.84-11.53-8.03.53-.78,1.05-1.57,1.56-2.37,1.21-1.89,2.36-3.71,3.6-5.52,1.8-2.64,3.34-5.18,5.44-7.58,1.4-1.59,2.47-1.76,4.48-2.35,1.75-.51,4.38-1.27,6.89-2.12,2.19-.74,4.29-1.55,5.64-2.32.67-.38.58-.3,1.35-.27,1.15.04,2.29.06,3.43.06,2.15.01,4.3-.04,6.45-.04.94,0,3.89-.18,4.44.37Z"/>
      <path class="cls-10" d="m63.76,19.46c.28.28.56.56.84.84,2.7,1.2,5.52,1.93,8.32,2.8,2.22.69,3.83,1.11,5.24,1.96,1.09.65,2.07,1.56,3.12,3.04,1.72,2.32,3.09,4.32,4.6,6.78.6.93,1.19,1.87,1.79,2.81,1.36,1.72,1.9,2.48,2.88,4.44-.75.62-1.51,1.25-2.26,1.87-.98.66-3.81,2.72-6.22,4.34-1.6,1.08-3.01,1.96-3.58,2.12-.23-.07-2.3-2.37-2.54-2.66-.62-.73-1.85-3.03-2.61-3.18-.18-.04-.33.04-.44.28-.37.79-.58,2.34-.76,3.22-.46,2.34-.93,4.49-1.11,6.88-.78,10.03,2.94,21.24,3.23,31.87-.81.34-1.61.67-2.42,1.01-8,1.82-28.91,2.61-36.67-.67-.91-.39-1.78-.56-1.57-1.44,1.25-5.12,1.52-10.74,2.81-15.85,2.31-9.19,1.71-11.68,1.3-21-.11-1.17-.08-3.38-.72-3.79-.5-.33-3.96,3.63-4.97,4.49-4.12-1.55-8.47-4.84-11.53-8.03.53-.78,1.05-1.57,1.56-2.37,1.21-1.89,2.36-3.71,3.6-5.52,1.8-2.64,3.34-5.18,5.44-7.58,1.4-1.59,2.47-1.76,4.48-2.35,1.75-.51,4.38-1.27,6.89-2.12,2.19-.74,4.29-1.55,5.64-2.32.67-.38.58-.3,1.35-.27,1.15.04,2.29.06,3.43.06,2.15.01,4.3-.04,6.45-.04.94,0,3.89-.18,4.44.37Z"/>
      <path class="cls-4" d="m63.61,19.31c.28.28.56.56.84.84,2.7,1.2,5.52,1.93,8.32,2.8,2.22.69,3.83,1.11,5.24,1.96,1.09.65,2.07,1.56,3.12,3.04,1.72,2.32,3.09,4.32,4.6,6.78.6.93,1.19,1.87,1.79,2.81,1.36,1.72,1.9,2.48,2.88,4.44-.75.62-1.51,1.25-2.26,1.87-.98.66-3.81,2.72-6.22,4.34-1.6,1.08-3.01,1.96-3.58,2.12-.23-.07-2.3-2.37-2.54-2.66-.62-.73-1.85-3.03-2.61-3.18-.18-.04-.33.04-.44.28-.37.79-.58,2.34-.76,3.22-.46,2.34-.93,4.49-1.11,6.88-.78,10.03,2.94,21.24,3.23,31.87-.81.34-1.61.67-2.42,1.01-8,1.82-28.91,2.61-36.67-.67-.91-.39-1.78-.56-1.57-1.44,1.25-5.12,1.52-10.74,2.81-15.85,2.31-9.19,1.71-11.68,1.3-21-.11-1.17-.08-3.38-.72-3.79-.5-.33-3.96,3.63-4.97,4.49-4.12-1.55-8.47-4.84-11.53-8.03.53-.78,1.05-1.57,1.56-2.37,1.21-1.89,2.36-3.71,3.6-5.52,1.8-2.64,3.34-5.18,5.44-7.58,1.4-1.59,2.47-1.76,4.48-2.35,1.75-.51,4.38-1.27,6.89-2.12,2.19-.74,4.29-1.55,5.64-2.32.67-.38.58-.3,1.35-.27,1.15.04,2.29.06,3.43.06,2.15.01,4.3-.04,6.45-.04.94,0,3.89-.18,4.44.37Z"/>
      <path class="cls-1" d="m63.46,19.16c.28.28.56.56.84.84,2.7,1.2,5.52,1.93,8.32,2.8,2.22.69,3.83,1.11,5.24,1.96,1.09.65,2.07,1.56,3.12,3.04,1.72,2.32,3.09,4.32,4.6,6.78.6.93,1.19,1.87,1.79,2.81,1.36,1.72,1.9,2.48,2.88,4.44-.75.62-1.51,1.25-2.26,1.87-.98.66-3.81,2.72-6.22,4.34-1.6,1.08-3.01,1.96-3.58,2.12-.23-.07-2.3-2.37-2.54-2.66-.62-.73-1.85-3.03-2.61-3.18-.18-.04-.33.04-.44.28-.37.79-.58,2.34-.76,3.22-.46,2.34-.93,4.49-1.11,6.88-.78,10.03,2.94,21.24,3.23,31.87-.81.34-1.61.67-2.42,1.01-8,1.82-28.91,2.61-36.67-.67-.91-.39-1.78-.56-1.57-1.44,1.25-5.12,1.52-10.74,2.81-15.85,2.31-9.19,1.71-11.68,1.3-21-.11-1.17-.08-3.38-.72-3.79-.5-.33-3.96,3.63-4.97,4.49-4.12-1.55-8.47-4.84-11.53-8.03.53-.78,1.05-1.57,1.56-2.37,1.21-1.89,2.36-3.71,3.6-5.52,1.8-2.64,3.34-5.18,5.44-7.58,1.4-1.59,2.47-1.76,4.48-2.35,1.75-.51,4.38-1.27,6.89-2.12,2.19-.74,4.29-1.55,5.64-2.32.67-.38.58-.3,1.35-.27,1.15.04,2.29.06,3.43.06,2.15.01,4.3-.04,6.45-.04.94,0,3.89-.18,4.44.37Z"/>
      <path class="cls-46" d="m63.31,19.01c.28.28.56.56.84.84,2.7,1.2,5.52,1.93,8.32,2.8,2.22.69,3.83,1.11,5.24,1.96,1.09.65,2.07,1.56,3.12,3.04,1.72,2.32,3.09,4.32,4.6,6.78.6.93,1.19,1.87,1.79,2.81,1.36,1.72,1.9,2.48,2.88,4.44-.75.62-1.51,1.25-2.26,1.87-.98.66-3.81,2.72-6.22,4.34-1.6,1.08-3.01,1.96-3.58,2.12-.23-.07-2.3-2.37-2.54-2.66-.62-.73-1.85-3.03-2.61-3.18-.18-.04-.33.04-.44.28-.37.79-.58,2.34-.76,3.22-.46,2.34-.93,4.49-1.11,6.88-.78,10.03,2.94,21.24,3.23,31.87-.81.34-1.61.67-2.42,1.01-8,1.82-28.91,2.61-36.67-.67-.91-.39-1.78-.56-1.57-1.44,1.25-5.12,1.52-10.74,2.81-15.85,2.31-9.19,1.71-11.68,1.3-21-.11-1.17-.08-3.38-.72-3.79-.5-.33-3.96,3.63-4.97,4.49-4.12-1.55-8.47-4.84-11.53-8.03.53-.78,1.05-1.57,1.56-2.37,1.21-1.89,2.36-3.71,3.6-5.52,1.8-2.64,3.34-5.18,5.44-7.58,1.4-1.59,2.47-1.76,4.48-2.35,1.75-.51,4.38-1.27,6.89-2.12,2.19-.74,4.29-1.55,5.64-2.32.67-.38.58-.3,1.35-.27,1.15.04,2.29.06,3.43.06,2.15.01,4.3-.04,6.45-.04.94,0,3.89-.18,4.44.37Z"/>
      <path class="cls-53" d="m63.16,18.86c.28.28.56.56.84.84,2.7,1.2,5.52,1.93,8.32,2.8,2.22.69,3.83,1.11,5.24,1.96,1.09.65,2.07,1.56,3.12,3.04,1.72,2.32,3.09,4.32,4.6,6.78.6.93,1.19,1.87,1.79,2.81,1.36,1.72,1.9,2.48,2.88,4.44-.75.62-1.51,1.25-2.26,1.87-.98.66-3.81,2.72-6.22,4.34-1.6,1.08-3.01,1.96-3.58,2.12-.23-.07-2.3-2.37-2.54-2.66-.62-.73-1.85-3.03-2.61-3.18-.18-.04-.33.04-.44.28-.37.79-.58,2.34-.76,3.22-.46,2.34-.93,4.49-1.11,6.88-.78,10.03,2.94,21.24,3.23,31.87-.81.34-1.61.67-2.42,1.01-8,1.82-28.91,2.61-36.67-.67-.91-.39-1.78-.56-1.57-1.44,1.25-5.12,1.52-10.74,2.81-15.85,2.31-9.19,1.71-11.68,1.3-21-.11-1.17-.08-3.38-.72-3.79-.5-.33-3.96,3.63-4.97,4.49-4.12-1.55-8.47-4.84-11.53-8.03.53-.78,1.05-1.57,1.56-2.37,1.21-1.89,2.36-3.71,3.6-5.52,1.8-2.64,3.34-5.18,5.44-7.58,1.4-1.59,2.47-1.76,4.48-2.35,1.75-.51,4.38-1.27,6.89-2.12,2.19-.74,4.29-1.55,5.64-2.32.67-.38.58-.3,1.35-.27,1.15.04,2.29.06,3.43.06,2.15.01,4.3-.04,6.45-.04.94,0,3.89-.18,4.44.37Z"/>
      <path class="cls-16" d="m63.01,18.71c.28.28.56.56.84.84,2.7,1.2,5.52,1.93,8.32,2.8,2.22.69,3.83,1.11,5.24,1.96,1.09.65,2.07,1.56,3.12,3.04,1.72,2.32,3.09,4.32,4.6,6.78.6.93,1.19,1.87,1.79,2.81,1.36,1.72,1.9,2.48,2.88,4.44-.75.62-1.51,1.25-2.26,1.87-.98.66-3.81,2.72-6.22,4.34-1.6,1.08-3.01,1.96-3.58,2.12-.23-.07-2.3-2.37-2.54-2.66-.62-.73-1.85-3.03-2.61-3.18-.18-.04-.33.04-.44.28-.37.79-.58,2.34-.76,3.22-.46,2.34-.93,4.49-1.11,6.88-.78,10.03,2.94,21.24,3.23,31.87-.81.34-1.61.67-2.42,1.01-8,1.82-28.91,2.61-36.67-.67-.91-.39-1.78-.56-1.57-1.44,1.25-5.12,1.52-10.74,2.81-15.85,2.31-9.19,1.71-11.68,1.3-21-.11-1.17-.08-3.38-.72-3.79-.5-.33-3.96,3.63-4.97,4.49-4.12-1.55-8.47-4.84-11.53-8.03.53-.78,1.05-1.57,1.56-2.37,1.21-1.89,2.36-3.71,3.6-5.52,1.8-2.64,3.34-5.18,5.44-7.58,1.4-1.59,2.47-1.76,4.48-2.35,1.75-.51,4.38-1.27,6.89-2.12,2.19-.74,4.29-1.55,5.64-2.32.67-.38.58-.3,1.35-.27,1.15.04,2.29.06,3.43.06,2.15.01,4.3-.04,6.45-.04.94,0,3.89-.18,4.44.37Z"/>
      <path class="cls-30" d="m62.86,18.56c.28.28.56.56.84.84,2.7,1.2,5.52,1.93,8.32,2.8,2.22.69,3.83,1.11,5.24,1.96,1.09.65,2.07,1.56,3.12,3.04,1.72,2.32,3.09,4.32,4.6,6.78.6.93,1.19,1.87,1.79,2.81,1.36,1.72,1.9,2.48,2.88,4.44-.75.62-1.51,1.25-2.26,1.87-.98.66-3.81,2.72-6.22,4.34-1.6,1.08-3.01,1.96-3.58,2.12-.23-.07-2.3-2.37-2.54-2.66-.62-.73-1.85-3.03-2.61-3.18-.18-.04-.33.04-.44.28-.37.79-.58,2.34-.76,3.22-.46,2.34-.93,4.49-1.11,6.88-.78,10.03,2.94,21.24,3.23,31.87-.81.34-1.61.67-2.42,1.01-8,1.82-28.91,2.61-36.67-.67-.91-.39-1.78-.56-1.57-1.44,1.25-5.12,1.52-10.74,2.81-15.85,2.31-9.19,1.71-11.68,1.3-21-.11-1.17-.08-3.38-.72-3.79-.5-.33-3.96,3.63-4.97,4.49-4.12-1.55-8.47-4.84-11.53-8.03.53-.78,1.05-1.57,1.56-2.37,1.21-1.89,2.36-3.71,3.6-5.52,1.8-2.64,3.34-5.18,5.44-7.58,1.4-1.59,2.47-1.76,4.48-2.35,1.75-.51,4.38-1.27,6.89-2.12,2.19-.74,4.29-1.55,5.64-2.32.67-.38.58-.3,1.35-.27,1.15.04,2.29.06,3.43.06,2.15.01,4.3-.04,6.45-.04.94,0,3.89-.18,4.44.37Z"/>
      <path class="cls-44" d="m62.71,18.41c.28.28.56.56.84.84,2.7,1.2,5.52,1.93,8.32,2.8,2.22.69,3.83,1.11,5.24,1.96,1.09.65,2.07,1.56,3.12,3.04,1.72,2.32,3.09,4.32,4.6,6.78.6.93,1.19,1.87,1.79,2.81,1.36,1.72,1.9,2.48,2.88,4.44-.75.62-1.51,1.25-2.26,1.87-.98.66-3.81,2.72-6.22,4.34-1.6,1.08-3.01,1.96-3.58,2.12-.23-.07-2.3-2.37-2.54-2.66-.62-.73-1.85-3.03-2.61-3.18-.18-.04-.33.04-.44.28-.37.79-.58,2.34-.76,3.22-.46,2.34-.93,4.49-1.11,6.88-.78,10.03,2.94,21.24,3.23,31.87-.81.34-1.61.67-2.42,1.01-8,1.82-28.91,2.61-36.67-.67-.91-.39-1.78-.56-1.57-1.44,1.25-5.12,1.52-10.74,2.81-15.85,2.31-9.19,1.71-11.68,1.3-21-.11-1.17-.08-3.38-.72-3.79-.5-.33-3.96,3.63-4.97,4.49-4.12-1.55-8.47-4.84-11.53-8.03.53-.78,1.05-1.57,1.56-2.37,1.21-1.89,2.36-3.71,3.6-5.52,1.8-2.64,3.34-5.18,5.44-7.58,1.4-1.59,2.47-1.76,4.48-2.35,1.75-.51,4.38-1.27,6.89-2.12,2.19-.74,4.29-1.55,5.64-2.32.67-.38.58-.3,1.35-.27,1.15.04,2.29.06,3.43.06,2.15.01,4.3-.04,6.45-.04.94,0,3.89-.18,4.44.37Z"/>
      <path class="cls-25" d="m62.56,18.26c.28.28.56.56.84.84,2.7,1.2,5.52,1.93,8.32,2.8,2.22.69,3.83,1.11,5.24,1.96,1.09.65,2.07,1.56,3.12,3.04,1.72,2.32,3.09,4.32,4.6,6.78.6.93,1.19,1.87,1.79,2.81,1.36,1.72,1.9,2.48,2.88,4.44-.75.62-1.51,1.25-2.26,1.87-.98.66-3.81,2.72-6.22,4.34-1.6,1.08-3.01,1.96-3.58,2.12-.23-.07-2.3-2.37-2.54-2.66-.62-.73-1.85-3.03-2.61-3.18-.18-.04-.33.04-.44.28-.37.79-.58,2.34-.76,3.22-.46,2.34-.93,4.49-1.11,6.88-.78,10.03,2.94,21.24,3.23,31.87-.81.34-1.61.67-2.42,1.01-8,1.82-28.91,2.61-36.67-.67-.91-.39-1.78-.56-1.57-1.44,1.25-5.12,1.52-10.74,2.81-15.85,2.31-9.19,1.71-11.68,1.3-21-.11-1.17-.08-3.38-.72-3.79-.5-.33-3.96,3.63-4.97,4.49-4.12-1.55-8.47-4.84-11.53-8.03.53-.78,1.05-1.57,1.56-2.37,1.21-1.89,2.36-3.71,3.6-5.52,1.8-2.64,3.34-5.18,5.44-7.58,1.4-1.59,2.47-1.76,4.48-2.35,1.75-.51,4.38-1.27,6.89-2.12,2.19-.74,4.29-1.55,5.64-2.32.67-.38.58-.3,1.35-.27,1.15.04,2.29.06,3.43.06,2.15.01,4.3-.04,6.45-.04.94,0,3.89-.18,4.44.37Z"/>
      <path class="cls-59" d="m62.41,18.11c.28.28.56.56.84.84,2.7,1.2,5.52,1.93,8.32,2.8,2.22.69,3.83,1.11,5.24,1.96,1.09.65,2.07,1.56,3.12,3.04,1.72,2.32,3.09,4.32,4.6,6.78.6.93,1.19,1.87,1.79,2.81,1.36,1.72,1.9,2.48,2.88,4.44-.75.62-1.51,1.25-2.26,1.87-.98.66-3.81,2.72-6.22,4.34-1.6,1.08-3.01,1.96-3.58,2.12-.23-.07-2.3-2.37-2.54-2.66-.62-.73-1.85-3.03-2.61-3.18-.18-.04-.33.04-.44.28-.37.79-.58,2.34-.76,3.22-.46,2.34-.93,4.49-1.11,6.88-.78,10.03,2.94,21.24,3.23,31.87-.81.34-1.61.67-2.42,1.01-8,1.82-28.91,2.61-36.67-.67-.91-.39-1.78-.56-1.57-1.44,1.25-5.12,1.52-10.74,2.81-15.85,2.31-9.19,1.71-11.68,1.3-21-.11-1.17-.08-3.38-.72-3.79-.5-.33-3.96,3.63-4.97,4.49-4.12-1.55-8.47-4.84-11.53-8.03.53-.78,1.05-1.57,1.56-2.37,1.21-1.89,2.36-3.71,3.6-5.52,1.8-2.64,3.34-5.18,5.44-7.58,1.4-1.59,2.47-1.76,4.48-2.35,1.75-.51,4.38-1.27,6.89-2.12,2.19-.74,4.29-1.55,5.64-2.32.67-.38.58-.3,1.35-.27,1.15.04,2.29.06,3.43.06,2.15.01,4.3-.04,6.45-.04.94,0,3.89-.18,4.44.37Z"/>
      <path class="cls-49" d="m62.26,17.96c.28.28.56.56.84.84,2.7,1.2,5.52,1.93,8.32,2.8,2.22.69,3.83,1.11,5.24,1.96,1.09.65,2.07,1.56,3.12,3.04,1.72,2.32,3.09,4.32,4.6,6.78.6.93,1.19,1.87,1.79,2.81,1.36,1.72,1.9,2.48,2.88,4.44-.75.62-1.51,1.25-2.26,1.87-.98.66-3.81,2.72-6.22,4.34-1.6,1.08-3.01,1.96-3.58,2.12-.23-.07-2.3-2.37-2.54-2.66-.62-.73-1.85-3.03-2.61-3.18-.18-.04-.33.04-.44.28-.37.79-.58,2.34-.76,3.22-.46,2.34-.93,4.49-1.11,6.88-.78,10.03,2.94,21.24,3.23,31.87-.81.34-1.61.67-2.42,1.01-8,1.82-28.91,2.61-36.67-.67-.91-.39-1.78-.56-1.57-1.44,1.25-5.12,1.52-10.74,2.81-15.85,2.31-9.19,1.71-11.68,1.3-21-.11-1.17-.08-3.38-.72-3.79-.5-.33-3.96,3.63-4.97,4.49-4.12-1.55-8.47-4.84-11.53-8.03.53-.78,1.05-1.57,1.56-2.37,1.21-1.89,2.36-3.71,3.6-5.52,1.8-2.64,3.34-5.18,5.44-7.58,1.4-1.59,2.47-1.76,4.48-2.35,1.75-.51,4.38-1.27,6.89-2.12,2.19-.74,4.29-1.55,5.64-2.32.67-.38.58-.3,1.35-.27,1.15.04,2.29.06,3.43.06,2.15.01,4.3-.04,6.45-.04.94,0,3.89-.18,4.44.37Z"/>
      <path class="cls-9" d="m62.11,17.81c.28.28.56.56.84.84,2.7,1.2,5.52,1.93,8.32,2.8,2.22.69,3.83,1.11,5.24,1.96,1.09.65,2.07,1.56,3.12,3.04,1.72,2.32,3.09,4.32,4.6,6.78.6.93,1.19,1.87,1.79,2.81,1.36,1.72,1.9,2.48,2.88,4.44-.75.62-1.51,1.25-2.26,1.87-.98.66-3.81,2.72-6.22,4.34-1.6,1.08-3.01,1.96-3.58,2.12-.23-.07-2.3-2.37-2.54-2.66-.62-.73-1.85-3.03-2.61-3.18-.18-.04-.33.04-.44.28-.37.79-.58,2.34-.76,3.22-.46,2.34-.93,4.49-1.11,6.88-.78,10.03,2.94,21.24,3.23,31.87-.81.34-1.61.67-2.42,1.01-8,1.82-28.91,2.61-36.67-.67-.91-.39-1.78-.56-1.57-1.44,1.25-5.12,1.52-10.74,2.81-15.85,2.31-9.19,1.71-11.68,1.3-21-.11-1.17-.08-3.38-.72-3.79-.5-.33-3.96,3.63-4.97,4.49-4.12-1.55-8.47-4.84-11.53-8.03.53-.78,1.05-1.57,1.56-2.37,1.21-1.89,2.36-3.71,3.6-5.52,1.8-2.64,3.34-5.18,5.44-7.58,1.4-1.59,2.47-1.76,4.48-2.35,1.75-.51,4.38-1.27,6.89-2.12,2.19-.74,4.29-1.55,5.64-2.32.67-.38.58-.3,1.35-.27,1.15.04,2.29.06,3.43.06,2.15.01,4.3-.04,6.45-.04.94,0,3.89-.18,4.44.37Z"/>
      <path class="cls-19" d="m61.96,17.66c.28.28.56.56.84.84,2.7,1.2,5.52,1.93,8.32,2.8,2.22.69,3.83,1.11,5.24,1.96,1.09.65,2.07,1.56,3.12,3.04,1.72,2.32,3.09,4.32,4.6,6.78.6.93,1.19,1.87,1.79,2.81,1.36,1.72,1.9,2.48,2.88,4.44-.75.62-1.51,1.25-2.26,1.87-.98.66-3.81,2.72-6.22,4.34-1.6,1.08-3.01,1.96-3.58,2.12-.23-.07-2.3-2.37-2.54-2.66-.62-.73-1.85-3.03-2.61-3.18-.18-.04-.33.04-.44.28-.37.79-.58,2.34-.76,3.22-.46,2.34-.93,4.49-1.11,6.88-.78,10.03,2.94,21.24,3.23,31.87-.81.34-1.61.67-2.42,1.01-8,1.82-28.91,2.61-36.67-.67-.91-.39-1.78-.56-1.57-1.44,1.25-5.12,1.52-10.74,2.81-15.85,2.31-9.19,1.71-11.68,1.3-21-.11-1.17-.08-3.38-.72-3.79-.5-.33-3.96,3.63-4.97,4.49-4.12-1.55-8.47-4.84-11.53-8.03.53-.78,1.05-1.57,1.56-2.37,1.21-1.89,2.36-3.71,3.6-5.52,1.8-2.64,3.34-5.18,5.44-7.58,1.4-1.59,2.47-1.76,4.48-2.35,1.75-.51,4.38-1.27,6.89-2.12,2.19-.74,4.29-1.55,5.64-2.32.67-.38.58-.3,1.35-.27,1.15.04,2.29.06,3.43.06,2.15.01,4.3-.04,6.45-.04.94,0,3.89-.18,4.44.37Z"/>
      <path class="cls-17" d="m61.82,17.52c.28.28.56.56.84.84,2.7,1.2,5.52,1.93,8.32,2.8,2.22.69,3.83,1.11,5.24,1.96,1.09.65,2.07,1.56,3.12,3.04,1.72,2.32,3.09,4.32,4.6,6.78.6.93,1.19,1.87,1.79,2.81,1.36,1.72,1.9,2.48,2.88,4.44-.75.62-1.51,1.25-2.26,1.87-.98.66-3.81,2.72-6.22,4.34-1.6,1.08-3.01,1.96-3.58,2.12-.23-.07-2.3-2.37-2.54-2.66-.62-.73-1.85-3.03-2.61-3.18-.18-.04-.33.04-.44.28-.37.79-.58,2.34-.76,3.22-.46,2.34-.93,4.49-1.11,6.88-.78,10.03,2.94,21.24,3.23,31.87-.81.34-1.61.67-2.42,1.01-8,1.82-28.91,2.61-36.67-.67-.91-.39-1.78-.56-1.57-1.44,1.25-5.12,1.52-10.74,2.81-15.85,2.31-9.19,1.71-11.68,1.3-21-.11-1.17-.08-3.38-.72-3.79-.5-.33-3.96,3.63-4.97,4.49-4.12-1.55-8.47-4.84-11.53-8.03.53-.78,1.05-1.57,1.56-2.37,1.21-1.89,2.36-3.71,3.6-5.52,1.8-2.64,3.34-5.18,5.44-7.58,1.4-1.59,2.47-1.76,4.48-2.35,1.75-.51,4.38-1.27,6.89-2.12,2.19-.74,4.29-1.55,5.64-2.32.67-.38.58-.3,1.35-.27,1.15.04,2.29.06,3.43.06,2.15.01,4.3-.04,6.45-.04.94,0,3.89-.18,4.44.37Z"/>
      <path class="cls-5" d="m61.67,17.37c.28.28.56.56.84.84,2.7,1.2,5.52,1.93,8.32,2.8,2.22.69,3.83,1.11,5.24,1.96,1.09.65,2.07,1.56,3.12,3.04,1.72,2.32,3.09,4.32,4.6,6.78.6.93,1.19,1.87,1.79,2.81,1.36,1.72,1.9,2.48,2.88,4.44-.75.62-1.51,1.25-2.26,1.87-.98.66-3.81,2.72-6.22,4.34-1.6,1.08-3.01,1.96-3.58,2.12-.23-.07-2.3-2.37-2.54-2.66-.62-.73-1.85-3.03-2.61-3.18-.18-.04-.33.04-.44.28-.37.79-.58,2.34-.76,3.22-.46,2.34-.93,4.49-1.11,6.88-.78,10.03,2.94,21.24,3.23,31.87-.81.34-1.61.67-2.42,1.01-8,1.82-28.91,2.61-36.67-.67-.91-.39-1.78-.56-1.57-1.44,1.25-5.12,1.52-10.74,2.81-15.85,2.31-9.19,1.71-11.68,1.3-21-.11-1.17-.08-3.38-.72-3.79-.5-.33-3.96,3.63-4.97,4.49-4.12-1.55-8.47-4.84-11.53-8.03.53-.78,1.05-1.57,1.56-2.37,1.21-1.89,2.36-3.71,3.6-5.52,1.8-2.64,3.34-5.18,5.44-7.58,1.4-1.59,2.47-1.76,4.48-2.35,1.75-.51,4.38-1.27,6.89-2.12,2.19-.74,4.29-1.55,5.64-2.32.67-.38.58-.3,1.35-.27,1.15.04,2.29.06,3.43.06,2.15.01,4.3-.04,6.45-.04.94,0,3.89-.18,4.44.37Z"/>
      <path class="cls-3" d="m61.52,17.22c.28.28.56.56.84.84,2.7,1.2,5.52,1.93,8.32,2.8,2.22.69,3.83,1.11,5.24,1.96,1.09.65,2.07,1.56,3.12,3.04,1.72,2.32,3.09,4.32,4.6,6.78.6.93,1.19,1.87,1.79,2.81,1.36,1.72,1.9,2.48,2.88,4.44-.75.62-1.51,1.25-2.26,1.87-.98.66-3.81,2.72-6.22,4.34-1.6,1.08-3.01,1.96-3.58,2.12-.23-.07-2.3-2.37-2.54-2.66-.62-.73-1.85-3.03-2.61-3.18-.18-.04-.33.04-.44.28-.37.79-.58,2.34-.76,3.22-.46,2.34-.93,4.49-1.11,6.88-.78,10.03,2.94,21.24,3.23,31.87-.81.34-1.61.67-2.42,1.01-8,1.82-28.91,2.61-36.67-.67-.91-.39-1.78-.56-1.57-1.44,1.25-5.12,1.52-10.74,2.81-15.85,2.31-9.19,1.71-11.68,1.3-21-.11-1.17-.08-3.38-.72-3.79-.5-.33-3.96,3.63-4.97,4.49-4.12-1.55-8.47-4.84-11.53-8.03.53-.78,1.05-1.57,1.56-2.37,1.21-1.89,2.36-3.71,3.6-5.52,1.8-2.64,3.34-5.18,5.44-7.58,1.4-1.59,2.47-1.76,4.48-2.35,1.75-.51,4.38-1.27,6.89-2.12,2.19-.74,4.29-1.55,5.64-2.32.67-.38.58-.3,1.35-.27,1.15.04,2.29.06,3.43.06,2.15.01,4.3-.04,6.45-.04.94,0,3.89-.18,4.44.37Z"/>
      <path class="cls-33" d="m61.37,17.07c.28.28.56.56.84.84,2.7,1.2,5.52,1.93,8.32,2.8,2.22.69,3.83,1.11,5.24,1.96,1.09.65,2.07,1.56,3.12,3.04,1.72,2.32,3.09,4.32,4.6,6.78.6.93,1.19,1.87,1.79,2.81,1.36,1.72,1.9,2.48,2.88,4.44-.75.62-1.51,1.25-2.26,1.87-.98.66-3.81,2.72-6.22,4.34-1.6,1.08-3.01,1.96-3.58,2.12-.23-.07-2.3-2.37-2.54-2.66-.62-.73-1.85-3.03-2.61-3.18-.18-.04-.33.04-.44.28-.37.79-.58,2.34-.76,3.22-.46,2.34-.93,4.49-1.11,6.88-.78,10.03,2.94,21.24,3.23,31.87-.81.34-1.61.67-2.42,1.01-8,1.82-28.91,2.61-36.67-.67-.91-.39-1.78-.56-1.57-1.44,1.25-5.12,1.52-10.74,2.81-15.85,2.31-9.19,1.71-11.68,1.3-21-.11-1.17-.08-3.38-.72-3.79-.5-.33-3.96,3.63-4.97,4.49-4.12-1.55-8.47-4.84-11.53-8.03.53-.78,1.05-1.57,1.56-2.37,1.21-1.89,2.36-3.71,3.6-5.52,1.8-2.64,3.34-5.18,5.44-7.58,1.4-1.59,2.47-1.76,4.48-2.35,1.75-.51,4.38-1.27,6.89-2.12,2.19-.74,4.29-1.55,5.64-2.32.67-.38.58-.3,1.35-.27,1.15.04,2.29.06,3.43.06,2.15.01,4.3-.04,6.45-.04.94,0,3.89-.18,4.44.37Z"/>
    </g>
    <path class="cls-28" d="m61.37,17.07c.28.28.56.56.84.84,2.7,1.2,5.52,1.93,8.32,2.8,2.22.69,3.83,1.11,5.24,1.96,1.09.65,2.07,1.56,3.12,3.04,1.72,2.32,3.09,4.32,4.6,6.78.6.93,1.19,1.87,1.79,2.81,1.36,1.72,1.9,2.48,2.88,4.44-.75.62-1.51,1.25-2.26,1.87-.98.66-3.81,2.72-6.22,4.34-1.6,1.08-3.01,1.96-3.58,2.12-.23-.07-2.3-2.37-2.54-2.66-.62-.73-1.85-3.03-2.61-3.18-.18-.04-.33.04-.44.28-.37.79-.58,2.34-.76,3.22-.46,2.34-.93,4.49-1.11,6.88-.78,10.03,2.94,21.24,3.23,31.87-.81.34-1.61.67-2.42,1.01-8,1.82-28.91,2.61-36.67-.67-.91-.39-1.78-.56-1.57-1.44,1.25-5.12,1.52-10.74,2.81-15.85,2.31-9.19,1.71-11.68,1.3-21-.11-1.17-.08-3.38-.72-3.79-.5-.33-3.96,3.63-4.97,4.49-4.12-1.55-8.47-4.84-11.53-8.03.53-.78,1.05-1.57,1.56-2.37,1.21-1.89,2.36-3.71,3.6-5.52,1.8-2.64,3.34-5.18,5.44-7.58,1.4-1.59,2.47-1.76,4.48-2.35,1.75-.51,4.38-1.27,6.89-2.12,2.19-.74,4.29-1.55,5.64-2.32.67-.38.58-.3,1.35-.27,1.15.04,2.29.06,3.43.06,2.15.01,4.3-.04,6.45-.04.94,0,3.89-.18,4.44.37Z"/>
  </g>
</svg>