<?xml version="1.0" encoding="utf-8"?>
<!-- Generator: Adobe Illustrator 28.0.0, SVG Export Plug-In . SVG Version: 6.00 Build 0)  -->
<svg version="1.1" baseProfile="tiny" xmlns="http://www.w3.org/2000/svg" xmlns:xlink="http://www.w3.org/1999/xlink" x="0px"
	 y="0px" viewBox="0 0 512 512" overflow="visible" xml:space="preserve">
<g id="Calque_3">
	<circle fill="#346F6F" cx="256" cy="256" r="253"/>
</g>
<g id="Calque_1">
	<g>
		<path fill="#0D0D0E" d="M262.2,329.8c-1.5-5.3-3-10.6-4.5-15.8c-5-17.8-13.1-32.9-26.7-45.2c-1-0.9-3.4-3.4-4.2-4.5
			c1.7-0.3,4.4,1.7,5.6,2.5c15,10.6,22.4,26.1,26.7,43.9c0.2,1,0.6,1.9,0.9,2.8C260.7,319,261.5,324.4,262.2,329.8z"/>
		<path fill="#0D0D0E" d="M367.3,249.2c-0.3,0.3-0.8,1.3-1.1,1.2c-0.7-0.1-1.6-0.6-1.9-1.3c-8.5-18.2-22.9-31.4-36.6-45
			c-0.8-0.8-2-2.7-1.8-3c1.2-1.4,2.5,0,3.5,0.6c13,8.9,21.4,18.1,29.4,30C362.4,237,366,242.2,367.3,249.2z"/>
		<path fill="#0D0D0E" d="M345.8,263.2c-9.6-4.9-18.1-10.8-22.2-21.5c-1.4-3.7-2.6-7.5-3.7-11.3c-0.2-0.7,0.4-1.7,0.6-2.6
			c0.6,0.5,1.4,0.9,1.8,1.5c1.6,2.8,3.4,5.5,4.4,8.5c3.5,10.2,10.6,17,19.1,22.4c0.7,0.4,1.1,1.3,1.7,2
			C347.1,262.6,346.6,262.8,345.8,263.2z"/>
	</g>
	<g>
		<path fill="none" d="M342.4,258.6c-6.6-4.2-12-9.4-14.7-17.3c-0.8-2.3-2.2-4.4-3.4-6.5c-0.3-0.5-0.9-0.8-1.4-1.2
			c-0.2,0.7-0.7,1.4-0.5,2c0.8,2.9,1.8,5.8,2.8,8.7c3.1,8.3,9.7,12.8,17,16.6c0.6-0.3,1-0.5,1.4-0.7
			C343.3,259.6,343,258.9,342.4,258.6z"/>
		<path fill="none" d="M336,208.9c-0.8-0.5-1.8-1.6-2.7-0.5c-0.2,0.2,0.8,1.7,1.4,2.3c10.6,10.5,21.6,20.6,28.2,34.6
			c0.2,0.5,0.9,0.9,1.5,1c0.2,0,0.6-0.7,0.8-0.9c-1-5.3-3.8-9.4-6.5-13.5C352.5,222.8,345.3,214.7,336,208.9z"/>
		<path fill="#EAC69F" d="M372.1,215.3c-24.8-11.1-47.3-26.5-69.1-42.9c-5.8-4.4-11.8-8.1-18.6-10.5c-3.2-1.1-3.9-2.9-2.2-6.1
			c1.8-3.6,2.9-7.6,3-11.7c0.3-10.8-7.4-17.8-17.9-16.4c-14.3,1.9-25.3,12.3-27.8,26.4c-0.6,3.1-0.7,6.3,0.3,9.3
			c1.2,3.6,0.3,6-3,7.6c-22.1,10.9-45.2,17.3-69.7,13.3c-17-2.8-31.2-12.1-43.4-24.8c-7.7-8-13.5-17.2-18.5-27.1
			c-4.6-9.1-7.1-19-9.8-28.8c-0.9-3.4-0.9-7-1.3-10.5c-9,4.6-17.6,9.9-26.1,15.3c-8.7,5.6-17.4,11.2-26,16.8
			c-1.3,0.9-2.7,1.6-4.2,2.4C15.7,165.3,3,209.2,3,256c0,63.7,23.5,121.9,62.4,166.4c15.9-4.8,32-8.3,48.3-11.1c6.4-1.1,8,0.1,8,6.8
			c-0.1,17-1,34-2.2,51c31.2,20,67,33.4,105.6,38.1c2.1-10.3,4.2-20.6,6.5-30.8c7.4-32.7,18.1-64.5,26.1-97.1
			c3.9-16.2,6.4-32.6,4.6-49.4c-1.5-5.3-3-10.6-4.5-15.8c-5-17.8-13.5-33.3-27.1-45.6c-1-0.9-1.6-2.1-2.4-3.2
			c1.7-0.3,2.5,1.1,3.6,1.9c15,10.6,23,25.9,27.3,43.8c0.2,1,0.6,1.9,0.9,2.8c4.2,1.9,7.9,0,11.6-1.8c4.7-2.4,8.6-6.7,14.5-6.5
			c4.8,0.1,9.7,1.4,14.1-2.1c0.5-0.4,1.8-0.3,2.5,0c3,1.2,5.8,0.7,8.4-1.2c5.3-3.8,10.7-4.2,16.5-1.2c1.9,1,4.1,1.3,6.1,2.3
			c4.9,2.3,7.7,0.1,9.4-4.6c1.6-4.8,3.4-9.5,5-14.2c4.2-12.2,9.5-22.7,24.9-20.4c3.1,0.5,6.3-1,8.5-3.4c10-11.1,17.9-23.6,22.8-38.1
			C393,222.4,382.3,219.9,372.1,215.3z M342.3,260.8c-7.4-3.8-13.9-8.3-17-16.6c-1.1-2.8-2-5.7-2.8-8.7c-0.2-0.6,0.3-1.3,0.5-2
			c0.5,0.4,1.1,0.7,1.4,1.2c1.2,2.1,2.6,4.2,3.4,6.5c2.7,7.8,8.1,13.1,14.7,17.3c0.5,0.3,0.9,1,1.3,1.5
			C343.3,260.3,342.9,260.6,342.3,260.8z M364.3,246.3c-0.5-0.1-1.2-0.5-1.5-1c-6.6-14-17.6-24.1-28.2-34.6
			c-0.6-0.6-1.6-2.1-1.4-2.3c0.9-1.1,1.9,0,2.7,0.5c9.3,5.8,16.5,13.9,22.6,23c2.7,4.1,5.5,8.1,6.5,13.5
			C365,245.6,364.6,246.4,364.3,246.3z"/>
	</g>
	<path fill="#9B7162" d="M256,3c-56,0-107.7,18.2-149.6,49c-2.5,3.4-4.8,7.1-6.7,11.1c-4.6,9.4-6.5,19.5-5.5,30.1
		c0.4,3.5,0.4,7.2,1.3,10.5c2.7,9.8,5.2,19.7,9.8,28.8c5,9.9,10.8,19.1,18.5,27.1c12.2,12.7,26.4,22,43.4,24.8
		c24.5,4,47.6-2.4,69.7-13.3c3.3-1.6,4.3-4,3-7.6c-1-3-0.9-6.2-0.3-9.3c2.6-14.1,13.5-24.5,27.8-26.4c10.4-1.4,18.2,5.6,17.9,16.4
		c-0.1,4.1-1.3,8.1-3,11.7c-1.6,3.3-1,5,2.2,6.1c6.8,2.3,12.8,6.1,18.6,10.5c21.8,16.5,44.2,31.8,69.1,42.9
		c10.2,4.6,20.8,7.1,32,6.9c0.5-0.2,0.9-0.4,1.4-0.4c12.9-0.1,23.5-5.8,34.1-13.2c12.7-8.9,30.4,0.7,31.1,16.2
		c0.5,12.6-2.8,23.8-10.7,33.8c-9.9,12.5-22.6,21.6-34.6,31.5c-17.3,14.3-23,33.7-21.7,55.4c0.9,15.8,0.8,31.3-3.1,46.7
		c-3.1,12.2-6.8,24-13.1,34.8c-0.3,0.5-0.3,1.2-0.4,1.8c0.6-0.2,1.2-0.2,1.8-0.5c5.4-2.3,10.9-4.7,16.3-7c10.2-4.4,21.4-5.3,32-8.7
		c7.2-2.3,13.8-5.8,20.5-8.8c2.6-1.2,5-3,7.3-5C492.7,358.1,509,309,509,256C509,116.3,395.7,3,256,3z"/>
	<g id="Calque_2_-_copie">
	</g>
</g>
</svg>
